<svg xmlns="http://www.w3.org/2000/svg" xmlns:xlink="http://www.w3.org/1999/xlink" viewBox="0 0 750 500"><defs><clipPath id="clip-path"><rect x="259.34" y="274.36" width="230.48" height="128.41" rx="3.39" transform="translate(713.14 -36.02) rotate(90)" fill="none"/></clipPath></defs><title>on</title><g id="BACKGROUND"><rect width="750" height="500" fill="#fff"/></g><g id="OBJECTS"><path d="M131.36,468.36c-54.61-51.8-70-218.07-43.8-296.54,28.07-84.07,64.9-105.7,172.21-65.36S371.36,30.53,475.52,22.23s227.71,96.08,193.59,292c-15.73,90.25-49.7,130.82-81.76,148.32Z" fill="#dff1fa"/><ellipse cx="378.99" cy="465.52" rx="260.78" ry="12.71" fill="#c8dee8"/><polygon points="364.76 94.76 364.76 296.06 490.98 296.06 490.98 121.47 463.99 94.76 364.76 94.76" fill="#fff"/><line x1="404.1" y1="265.28" x2="454.4" y2="265.28" fill="none" stroke="#dceef7" stroke-linecap="round" stroke-miterlimit="10" stroke-width="1.59"/><line x1="384.81" y1="117.95" x2="430.5" y2="117.67" fill="none" stroke="#dceef7" stroke-linecap="round" stroke-miterlimit="10" stroke-width="1.59"/><line x1="384.86" y1="129.27" x2="430.56" y2="128.98" fill="none" stroke="#dceef7" stroke-linecap="round" stroke-miterlimit="10" stroke-width="1.59"/><line x1="384.96" y1="148.67" x2="474.25" y2="148.11" fill="none" stroke="#dceef7" stroke-linecap="round" stroke-miterlimit="10" stroke-width="1.59"/><line x1="385.01" y1="160.63" x2="474.31" y2="160.07" fill="none" stroke="#dceef7" stroke-linecap="round" stroke-miterlimit="10" stroke-width="1.59"/><line x1="385.07" y1="172.58" x2="474.37" y2="172.02" fill="none" stroke="#dceef7" stroke-linecap="round" stroke-miterlimit="10" stroke-width="1.59"/><line x1="385.13" y1="184.53" x2="474.42" y2="183.98" fill="none" stroke="#dceef7" stroke-linecap="round" stroke-miterlimit="10" stroke-width="1.59"/><line x1="385.19" y1="196.49" x2="474.48" y2="195.93" fill="none" stroke="#dceef7" stroke-linecap="round" stroke-miterlimit="10" stroke-width="1.59"/><line x1="385.25" y1="208.44" x2="474.54" y2="207.89" fill="none" stroke="#dceef7" stroke-linecap="round" stroke-miterlimit="10" stroke-width="1.59"/><line x1="385.31" y1="220.4" x2="474.6" y2="219.84" fill="none" stroke="#dceef7" stroke-linecap="round" stroke-miterlimit="10" stroke-width="1.59"/><line x1="385.36" y1="232.35" x2="474.66" y2="231.8" fill="none" stroke="#dceef7" stroke-linecap="round" stroke-miterlimit="10" stroke-width="1.59"/><line x1="385.42" y1="244.31" x2="474.72" y2="243.75" fill="none" stroke="#dceef7" stroke-linecap="round" stroke-miterlimit="10" stroke-width="1.59"/><polygon points="463.99 94.76 490.84 121.61 463.99 121.61 463.99 94.76" fill="#dceef7" opacity="0.45"/><path d="M513.07,160.59H451.6a6.15,6.15,0,0,0-6.13,6.13v4.7a6.15,6.15,0,0,0,6.13,6.14h52.75L508.6,185a1.21,1.21,0,0,0,2.25-.38l1.34-7.06h.88a6.15,6.15,0,0,0,6.13-6.14v-4.7A6.15,6.15,0,0,0,513.07,160.59Z" fill="#216fdd"/><polygon points="458.16 172.15 455.86 170.91 453.54 172.1 454.01 169.53 452.15 167.69 454.74 167.34 455.92 165.01 457.05 167.37 459.63 167.76 457.75 169.57 458.16 172.15" fill="#fff"/><polygon points="472.9 172.15 470.6 170.91 468.27 172.1 468.74 169.53 466.89 167.69 469.47 167.34 470.65 165.01 471.79 167.37 474.37 167.76 472.48 169.57 472.9 172.15" fill="#fff"/><polygon points="487.03 172.15 484.73 170.91 482.41 172.1 482.87 169.53 481.02 167.69 483.61 167.34 484.78 165.01 485.92 167.37 488.5 167.76 486.61 169.57 487.03 172.15" fill="#fff"/><polygon points="500.31 172.15 498.01 170.91 495.69 172.1 496.16 169.53 494.3 167.69 496.89 167.34 498.07 165.01 499.2 167.37 501.78 167.76 499.9 169.57 500.31 172.15" fill="#fff"/><polygon points="512.79 172.15 510.49 170.91 508.17 172.1 508.63 169.53 506.78 167.69 509.36 167.34 510.54 165.01 511.68 167.37 514.26 167.76 512.37 169.57 512.79 172.15" fill="#fff"/><rect x="263.49" y="135.26" width="119.79" height="327.28" fill="#3a7eb9"/><rect x="260.16" y="135.26" width="126.46" height="12.31" fill="#2a3b69"/><rect x="279.19" y="164.75" width="35.16" height="23.41" fill="#2a3b69"/><rect x="276.29" y="185.65" width="41.31" height="5.01" fill="#92b7fb"/><rect x="294.75" y="164.75" width="3.12" height="20.9" fill="#92b7fb"/><rect x="332.07" y="164.75" width="35.16" height="23.41" fill="#2a3b69"/><rect x="329.17" y="185.65" width="41.31" height="5.01" fill="#92b7fb"/><rect x="347.64" y="164.75" width="3.12" height="20.9" fill="#92b7fb"/><rect x="279.19" y="214.58" width="35.16" height="23.41" fill="#2a3b69"/><rect x="276.29" y="235.48" width="41.31" height="5.01" fill="#92b7fb"/><rect x="294.75" y="214.58" width="3.12" height="20.9" fill="#92b7fb"/><rect x="332.07" y="214.58" width="35.16" height="23.41" fill="#2a3b69"/><rect x="329.17" y="235.48" width="41.31" height="5.01" fill="#92b7fb"/><rect x="347.64" y="214.58" width="3.12" height="20.9" fill="#92b7fb"/><rect x="279.19" y="264.41" width="35.16" height="23.41" fill="#2a3b69"/><rect x="276.29" y="285.31" width="41.31" height="5.01" fill="#92b7fb"/><rect x="294.75" y="264.41" width="3.12" height="20.9" fill="#92b7fb"/><rect x="332.07" y="264.41" width="35.16" height="23.41" fill="#2a3b69"/><rect x="329.17" y="285.31" width="41.31" height="5.01" fill="#92b7fb"/><rect x="347.64" y="264.41" width="3.12" height="20.9" fill="#92b7fb"/><rect x="279.19" y="314.24" width="35.16" height="23.41" fill="#2a3b69"/><rect x="276.29" y="335.14" width="41.31" height="5.01" fill="#92b7fb"/><rect x="294.75" y="314.24" width="3.12" height="20.9" fill="#92b7fb"/><rect x="332.07" y="314.24" width="35.16" height="23.41" fill="#2a3b69"/><rect x="329.17" y="335.14" width="41.31" height="5.01" fill="#92b7fb"/><rect x="347.64" y="314.24" width="3.12" height="20.9" fill="#92b7fb"/><rect x="279.19" y="364.07" width="35.16" height="23.41" fill="#2a3b69"/><rect x="276.29" y="384.97" width="41.31" height="5.01" fill="#92b7fb"/><rect x="294.75" y="364.07" width="3.12" height="20.9" fill="#92b7fb"/><rect x="332.07" y="364.07" width="35.16" height="23.41" fill="#2a3b69"/><rect x="329.17" y="384.97" width="41.31" height="5.01" fill="#92b7fb"/><rect x="347.64" y="364.07" width="3.12" height="20.9" fill="#92b7fb"/><rect x="279.19" y="413.9" width="35.16" height="23.41" fill="#2a3b69"/><rect x="276.29" y="434.8" width="41.31" height="5.01" fill="#92b7fb"/><rect x="294.75" y="413.9" width="3.12" height="20.9" fill="#92b7fb"/><rect x="332.07" y="413.9" width="35.16" height="23.41" fill="#2a3b69"/><rect x="329.17" y="434.8" width="41.31" height="5.01" fill="#92b7fb"/><rect x="347.64" y="413.9" width="3.12" height="20.9" fill="#92b7fb"/><rect x="532.62" y="135.26" width="82.86" height="327.28" fill="#3a7eb9"/><rect x="530.32" y="135.26" width="87.48" height="12.31" fill="#2a3b69"/><path d="M600.12,190.26V176.92a1.06,1.06,0,0,1,1-1.06h0a1.06,1.06,0,0,1,1.06,1.06v13.34" fill="#3d7ebc"/><rect x="551.79" y="162.19" width="45.99" height="28.01" fill="#2a3b69"/><rect x="549.66" y="192.89" width="50.01" height="2.91" fill="#356ea4"/><path d="M547.2,190.26V176.92a1.06,1.06,0,0,1,1-1.06h0a1.07,1.07,0,0,1,1.06,1.06v13.34" fill="#3d7ebc"/><rect x="549.31" y="178.16" width="50.81" height="12.1" fill="#3d7ebc" opacity="0.32"/><rect x="545.53" y="190.2" width="58.28" height="2.91" fill="#3a7ab7"/><rect x="573.37" y="162.19" width="1.99" height="28.01" fill="#2f6292"/><path d="M599.81,250.43V237.09a1.06,1.06,0,0,1,1.06-1.06h0a1.05,1.05,0,0,1,1,1.06v13.34" fill="#3d7ebc"/><rect x="551.49" y="222.35" width="45.99" height="28.01" fill="#2a3b69"/><rect x="549.36" y="253.06" width="50.01" height="2.91" fill="#356ea4"/><path d="M546.89,250.43V237.09a1.05,1.05,0,0,1,1.05-1.06h0a1.05,1.05,0,0,1,1.06,1.06v13.34" fill="#3d7ebc"/><rect x="549" y="238.33" width="50.81" height="12.1" fill="#3d7ebc" opacity="0.32"/><rect x="545.22" y="250.37" width="58.28" height="2.91" fill="#3a7ab7"/><rect x="573.06" y="222.35" width="1.99" height="28.01" fill="#2f6292"/><path d="M599.51,310.6V297.25a1,1,0,0,1,1-1.05h0a1,1,0,0,1,1.05,1.05V310.6" fill="#3d7ebc"/><rect x="551.18" y="282.52" width="45.99" height="28.01" fill="#2a3b69"/><rect x="549.05" y="313.22" width="50.01" height="2.91" fill="#356ea4"/><path d="M546.58,310.6V297.25a1.05,1.05,0,0,1,1.06-1.05h0a1,1,0,0,1,1.05,1.05V310.6" fill="#3d7ebc"/><rect x="548.69" y="298.5" width="50.81" height="12.1" fill="#3d7ebc" opacity="0.32"/><rect x="544.91" y="310.53" width="58.28" height="2.91" fill="#3a7ab7"/><rect x="572.75" y="282.52" width="1.99" height="28.01" fill="#2f6292"/><path d="M599.2,370.76V357.42a1,1,0,0,1,1-1.05h0a1.06,1.06,0,0,1,1.06,1.05v13.34" fill="#3d7ebc"/><rect x="550.87" y="342.69" width="45.99" height="28.01" fill="#2a3b69"/><rect x="548.74" y="373.39" width="50.01" height="2.91" fill="#356ea4"/><path d="M546.27,370.76V357.42a1.06,1.06,0,0,1,1.06-1.05h0a1,1,0,0,1,1,1.05v13.34" fill="#3d7ebc"/><rect x="548.38" y="358.67" width="50.81" height="12.1" fill="#3d7ebc" opacity="0.32"/><rect x="544.61" y="370.7" width="58.28" height="2.91" fill="#3a7ab7"/><rect x="572.45" y="342.69" width="1.99" height="28.01" fill="#2f6292"/><path d="M598.89,430.93V417.59a1.06,1.06,0,0,1,1.06-1.06h0a1.06,1.06,0,0,1,1,1.06v13.34" fill="#3d7ebc"/><rect x="550.56" y="402.86" width="45.99" height="28.01" fill="#2a3b69"/><rect x="548.43" y="433.56" width="50.01" height="2.91" fill="#356ea4"/><path d="M546,430.93V417.59a1.06,1.06,0,0,1,1-1.06h0a1.07,1.07,0,0,1,1.06,1.06v13.34" fill="#3d7ebc"/><rect x="548.08" y="418.83" width="50.82" height="12.1" fill="#3d7ebc" opacity="0.32"/><rect x="544.3" y="430.87" width="58.28" height="2.91" fill="#3a7ab7"/><rect x="572.14" y="402.86" width="1.99" height="28.01" fill="#2f6292"/><rect x="383.22" y="190.67" width="152.18" height="271.87" fill="#aadcf7"/><rect x="378.99" y="190.67" width="160.66" height="10.22" fill="#2a3b69"/><path d="M426.68,237.94a1.3,1.3,0,1,1-1.3-1.22A1.26,1.26,0,0,1,426.68,237.94Z" fill="#387eb9"/><rect x="397.49" y="238.3" width="0.36" height="15.97" fill="#387eb9"/><rect x="399.9" y="216.12" width="23.16" height="39.71" fill="#2a3b69"/><rect x="396.25" y="254.27" width="30.32" height="3.04" fill="#3a7eb9"/><rect x="425.21" y="238.3" width="0.36" height="15.97" fill="#387eb9"/><ellipse cx="397.67" cy="237.94" rx="1.3" ry="1.22" fill="#387eb9"/><rect x="397.67" y="238.77" width="27.54" height="15.5" fill="#387eb9" opacity="0.47"/><ellipse cx="473.21" cy="237.94" rx="1.3" ry="1.22" fill="#387eb9"/><rect x="445.32" y="238.3" width="0.36" height="15.97" fill="#387eb9"/><rect x="447.73" y="216.12" width="23.16" height="39.71" fill="#2a3b69"/><rect x="444.08" y="254.27" width="30.32" height="3.04" fill="#3a7eb9"/><rect x="473.04" y="238.3" width="0.36" height="15.97" fill="#387eb9"/><path d="M446.8,237.94a1.3,1.3,0,1,1-1.3-1.22A1.26,1.26,0,0,1,446.8,237.94Z" fill="#387eb9"/><rect x="445.5" y="238.77" width="27.54" height="15.5" fill="#387eb9" opacity="0.47"/><ellipse cx="521.04" cy="237.94" rx="1.3" ry="1.22" fill="#387eb9"/><rect x="493.15" y="238.3" width="0.36" height="15.97" fill="#387eb9"/><rect x="495.56" y="216.12" width="23.16" height="39.71" fill="#2a3b69"/><rect x="491.91" y="254.27" width="30.32" height="3.04" fill="#3a7eb9"/><rect x="520.87" y="238.3" width="0.36" height="15.97" fill="#387eb9"/><path d="M494.63,237.94a1.3,1.3,0,1,1-1.3-1.22A1.26,1.26,0,0,1,494.63,237.94Z" fill="#387eb9"/><rect x="493.33" y="238.77" width="27.54" height="15.5" fill="#387eb9" opacity="0.47"/><path d="M426.7,302.42a1.3,1.3,0,1,1-1.3-1.22A1.26,1.26,0,0,1,426.7,302.42Z" fill="#387eb9"/><rect x="397.5" y="302.78" width="0.36" height="15.97" fill="#387eb9"/><rect x="399.91" y="280.61" width="23.16" height="39.71" fill="#2a3b69"/><rect x="396.26" y="318.75" width="30.32" height="3.04" fill="#3a7eb9"/><rect x="425.22" y="302.78" width="0.36" height="15.97" fill="#387eb9"/><path d="M399,302.42a1.3,1.3,0,0,1-2.6,0,1.3,1.3,0,0,1,2.6,0Z" fill="#387eb9"/><rect x="397.68" y="303.25" width="27.54" height="15.5" fill="#387eb9" opacity="0.47"/><ellipse cx="473.23" cy="302.42" rx="1.3" ry="1.22" fill="#387eb9"/><rect x="445.33" y="302.78" width="0.36" height="15.97" fill="#387eb9"/><rect x="447.74" y="280.61" width="23.16" height="39.71" fill="#2a3b69"/><rect x="444.09" y="318.75" width="30.32" height="3.04" fill="#3a7eb9"/><rect x="473.05" y="302.78" width="0.36" height="15.97" fill="#387eb9"/><ellipse cx="445.51" cy="302.42" rx="1.3" ry="1.22" fill="#387eb9"/><rect x="445.51" y="303.25" width="27.54" height="15.5" fill="#387eb9" opacity="0.47"/><path d="M522.36,302.42a1.3,1.3,0,1,1-1.3-1.22A1.26,1.26,0,0,1,522.36,302.42Z" fill="#387eb9"/><rect x="493.17" y="302.78" width="0.36" height="15.97" fill="#387eb9"/><rect x="495.57" y="280.61" width="23.16" height="39.71" fill="#2a3b69"/><rect x="491.92" y="318.75" width="30.32" height="3.04" fill="#3a7eb9"/><rect x="520.88" y="302.78" width="0.36" height="15.97" fill="#387eb9"/><path d="M494.64,302.42a1.3,1.3,0,0,1-2.6,0,1.3,1.3,0,0,1,2.6,0Z" fill="#387eb9"/><rect x="493.34" y="303.25" width="27.54" height="15.5" fill="#387eb9" opacity="0.47"/><path d="M426.71,366.9a1.3,1.3,0,1,1-1.3-1.22A1.26,1.26,0,0,1,426.71,366.9Z" fill="#387eb9"/><rect x="397.52" y="367.27" width="0.36" height="15.97" fill="#387eb9"/><rect x="399.92" y="345.09" width="23.16" height="39.71" fill="#2a3b69"/><rect x="396.27" y="383.23" width="30.32" height="3.04" fill="#3a7eb9"/><rect x="425.23" y="367.27" width="0.36" height="15.97" fill="#387eb9"/><ellipse cx="397.69" cy="366.9" rx="1.3" ry="1.22" fill="#387eb9"/><rect x="397.69" y="367.73" width="27.54" height="15.5" fill="#387eb9" opacity="0.47"/><ellipse cx="473.24" cy="366.9" rx="1.3" ry="1.22" fill="#387eb9"/><rect x="445.35" y="367.27" width="0.36" height="15.97" fill="#387eb9"/><rect x="447.75" y="345.09" width="23.16" height="39.71" fill="#2a3b69"/><rect x="444.1" y="383.23" width="30.32" height="3.04" fill="#3a7eb9"/><rect x="473.06" y="367.27" width="0.36" height="15.97" fill="#387eb9"/><path d="M446.82,366.9a1.3,1.3,0,1,1-1.3-1.22A1.26,1.26,0,0,1,446.82,366.9Z" fill="#387eb9"/><rect x="445.52" y="367.73" width="27.54" height="15.5" fill="#387eb9" opacity="0.47"/><ellipse cx="521.07" cy="366.9" rx="1.3" ry="1.22" fill="#387eb9"/><rect x="493.18" y="367.27" width="0.36" height="15.97" fill="#387eb9"/><rect x="495.58" y="345.09" width="23.16" height="39.71" fill="#2a3b69"/><rect x="491.93" y="383.23" width="30.32" height="3.04" fill="#3a7eb9"/><rect x="520.89" y="367.27" width="0.36" height="15.97" fill="#387eb9"/><path d="M494.65,366.9a1.3,1.3,0,1,1-1.3-1.22A1.26,1.26,0,0,1,494.65,366.9Z" fill="#387eb9"/><rect x="493.35" y="367.73" width="27.54" height="15.5" fill="#387eb9" opacity="0.47"/><ellipse cx="425.42" cy="431.38" rx="1.3" ry="1.22" fill="#387eb9"/><rect x="397.53" y="431.75" width="0.36" height="15.97" fill="#387eb9"/><rect x="399.93" y="409.57" width="23.16" height="39.71" fill="#2a3b69"/><rect x="396.29" y="447.71" width="30.32" height="3.04" fill="#3a7eb9"/><rect x="425.24" y="431.75" width="0.36" height="15.97" fill="#387eb9"/><path d="M399,431.38a1.3,1.3,0,1,1-1.3-1.22A1.27,1.27,0,0,1,399,431.38Z" fill="#387eb9"/><rect x="397.71" y="432.21" width="27.54" height="15.5" fill="#387eb9" opacity="0.47"/><path d="M474.55,431.38a1.3,1.3,0,1,1-1.3-1.22A1.26,1.26,0,0,1,474.55,431.38Z" fill="#387eb9"/><rect x="445.36" y="431.75" width="0.36" height="15.97" fill="#387eb9"/><rect x="447.76" y="409.57" width="23.16" height="39.71" fill="#2a3b69"/><rect x="444.12" y="447.71" width="30.32" height="3.04" fill="#3a7eb9"/><rect x="473.07" y="431.75" width="0.36" height="15.97" fill="#387eb9"/><ellipse cx="445.54" cy="431.38" rx="1.3" ry="1.22" fill="#387eb9"/><rect x="445.54" y="432.21" width="27.54" height="15.5" fill="#387eb9" opacity="0.47"/><ellipse cx="521.08" cy="431.38" rx="1.3" ry="1.22" fill="#387eb9"/><rect x="493.19" y="431.75" width="0.36" height="15.97" fill="#387eb9"/><rect x="495.59" y="409.57" width="23.16" height="39.71" fill="#2a3b69"/><rect x="491.95" y="447.71" width="30.32" height="3.04" fill="#3a7eb9"/><rect x="520.9" y="431.75" width="0.36" height="15.97" fill="#387eb9"/><path d="M494.67,431.38a1.3,1.3,0,1,1-1.3-1.22A1.27,1.27,0,0,1,494.67,431.38Z" fill="#387eb9"/><rect x="493.37" y="432.21" width="27.54" height="15.5" fill="#387eb9" opacity="0.47"/><rect x="134.95" y="234.52" width="128.68" height="228.02" fill="#92b7fb"/><polyline points="267.21 234.52 267.21 243.09 131.36 243.09 131.36 234.52" fill="#2a3b69"/><rect x="143.26" y="257.89" width="26.1" height="49.32" fill="#2a3b69"/><rect x="186.24" y="257.89" width="26.1" height="49.32" fill="#2a3b69"/><rect x="229.21" y="257.89" width="26.1" height="49.32" fill="#2a3b69"/><rect x="143.26" y="322.68" width="26.1" height="49.32" fill="#2a3b69"/><rect x="186.24" y="322.68" width="26.1" height="49.32" fill="#2a3b69"/><rect x="229.21" y="322.68" width="26.1" height="49.32" fill="#2a3b69"/><rect x="143.26" y="387.47" width="26.1" height="49.32" fill="#2a3b69"/><rect x="186.24" y="387.47" width="26.1" height="49.32" fill="#2a3b69"/><rect x="229.21" y="387.47" width="26.1" height="49.32" fill="#2a3b69"/><path d="M143.25,289.08v19.25h26.13V289.08Zm4.52,18h-2.29V290.29h2.29Zm3.67,0h-2.28V290.29h2.28Zm3.82,0H153V290.29h2.28Zm3.79,0h-2.28V290.29h2.28Zm3.94,0h-2.28V290.29H163Zm4.2,0H164.9V290.29h2.29Z" fill="#3a7eb9"/><rect x="140.48" y="287.77" width="31.68" height="2.52" fill="#3a7eb9"/><rect x="140.48" y="307.07" width="31.68" height="2.52" fill="#3a7eb9"/><path d="M186.22,289.08v19.25h26.14V289.08Zm4.52,18h-2.29V290.29h2.29Zm3.67,0h-2.28V290.29h2.28Zm3.82,0H196V290.29h2.28Zm3.79,0h-2.28V290.29H202Zm3.94,0h-2.28V290.29H206Zm4.21,0h-2.29V290.29h2.29Z" fill="#3a7eb9"/><rect x="183.45" y="287.77" width="31.68" height="2.52" fill="#3a7eb9"/><rect x="183.45" y="307.07" width="31.68" height="2.52" fill="#3a7eb9"/><path d="M229.19,289.08v19.25h26.14V289.08Zm4.53,18h-2.29V290.29h2.29Zm3.66,0H235.1V290.29h2.28Zm3.82,0h-2.28V290.29h2.28Zm3.79,0h-2.28V290.29H245Zm3.94,0h-2.28V290.29h2.28Zm4.21,0h-2.29V290.29h2.29Z" fill="#3a7eb9"/><rect x="226.42" y="287.77" width="31.67" height="2.52" fill="#3a7eb9"/><rect x="226.42" y="307.07" width="31.67" height="2.52" fill="#3a7eb9"/><path d="M143.25,353.87v19.25h26.13V353.87Zm4.52,18h-2.29V355.07h2.29Zm3.67,0h-2.28V355.07h2.28Zm3.82,0H153V355.07h2.28Zm3.79,0h-2.28V355.07h2.28Zm3.94,0h-2.28V355.07H163Zm4.2,0H164.9V355.07h2.29Z" fill="#3a7eb9"/><rect x="140.48" y="352.56" width="31.68" height="2.52" fill="#3a7eb9"/><rect x="140.48" y="371.86" width="31.68" height="2.52" fill="#3a7eb9"/><path d="M186.22,353.87v19.25h26.14V353.87Zm4.52,18h-2.29V355.07h2.29Zm3.67,0h-2.28V355.07h2.28Zm3.82,0H196V355.07h2.28Zm3.79,0h-2.28V355.07H202Zm3.94,0h-2.28V355.07H206Zm4.21,0h-2.29V355.07h2.29Z" fill="#3a7eb9"/><rect x="183.45" y="352.56" width="31.68" height="2.52" fill="#3a7eb9"/><rect x="183.45" y="371.86" width="31.68" height="2.52" fill="#3a7eb9"/><path d="M229.19,353.87v19.25h26.14V353.87Zm4.53,18h-2.29V355.07h2.29Zm3.66,0H235.1V355.07h2.28Zm3.82,0h-2.28V355.07h2.28Zm3.79,0h-2.28V355.07H245Zm3.94,0h-2.28V355.07h2.28Zm4.21,0h-2.29V355.07h2.29Z" fill="#3a7eb9"/><rect x="226.42" y="352.56" width="31.67" height="2.52" fill="#3a7eb9"/><rect x="226.42" y="371.86" width="31.67" height="2.52" fill="#3a7eb9"/><path d="M143.25,418.65v19.26h26.13V418.65Zm4.52,18.05h-2.29V419.86h2.29Zm3.67,0h-2.28V419.86h2.28Zm3.82,0H153V419.86h2.28Zm3.79,0h-2.28V419.86h2.28Zm3.94,0h-2.28V419.86H163Zm4.2,0H164.9V419.86h2.29Z" fill="#3a7eb9"/><rect x="140.48" y="417.35" width="31.68" height="2.52" fill="#3a7eb9"/><rect x="140.48" y="436.65" width="31.68" height="2.52" fill="#3a7eb9"/><path d="M186.22,418.65v19.26h26.14V418.65Zm4.52,18.05h-2.29V419.86h2.29Zm3.67,0h-2.28V419.86h2.28Zm3.82,0H196V419.86h2.28Zm3.79,0h-2.28V419.86H202Zm3.94,0h-2.28V419.86H206Zm4.21,0h-2.29V419.86h2.29Z" fill="#3a7eb9"/><rect x="183.45" y="417.35" width="31.68" height="2.52" fill="#3a7eb9"/><rect x="183.45" y="436.65" width="31.68" height="2.52" fill="#3a7eb9"/><path d="M229.19,418.65v19.26h26.14V418.65Zm4.53,18.05h-2.29V419.86h2.29Zm3.66,0H235.1V419.86h2.28Zm3.82,0h-2.28V419.86h2.28Zm3.79,0h-2.28V419.86H245Zm3.94,0h-2.28V419.86h2.28Zm4.21,0h-2.29V419.86h2.29Z" fill="#3a7eb9"/><rect x="226.42" y="417.35" width="31.67" height="2.52" fill="#3a7eb9"/><rect x="226.42" y="436.65" width="31.67" height="2.52" fill="#3a7eb9"/><line x1="134.95" y1="316" x2="263.63" y2="316" fill="none" stroke="#2a3b69" stroke-miterlimit="10" stroke-width="0.93"/><line x1="134.95" y1="382.39" x2="263.63" y2="382.39" fill="none" stroke="#2a3b69" stroke-miterlimit="10" stroke-width="0.93"/><path d="M222.4,274.13l-.13-29.23,1.52-1-3.85-1.86,5.29-2.92-3-1.1L222,189.13c-3.38-1.25-11.81-5.52-14.67-17.6a26.61,26.61,0,0,1,15-31,25.09,25.09,0,0,1,3.9-1.28,24.28,24.28,0,0,1,5.66-.67h0a24.09,24.09,0,0,1,4.89.46,24.35,24.35,0,0,1,4.17,1.2,26.38,26.38,0,0,1,16.59,24.48,26,26,0,0,1-18.29,25.3l-.7,83.05-8.1,12.08ZM231,147.27a1.93,1.93,0,0,0-1.59,1.94,2,2,0,0,0,.62,1.44,1.77,1.77,0,0,0,1.21.48,1.81,1.81,0,0,0,1.39-.66,2,2,0,0,0,.44-1.28,1.83,1.83,0,0,0-1.83-1.93Z" fill="#c8dee8"/><path d="M255.73,164.76A24.38,24.38,0,0,0,240.32,142a21.09,21.09,0,0,0-3.86-1.11,21.89,21.89,0,0,0-4.53-.43,22.64,22.64,0,0,0-5.24.62,22.23,22.23,0,0,0-3.62,1.19A24.4,24.4,0,0,0,208.35,165a25.32,25.32,0,0,0,.79,6.14c3.32,14,14.72,16.67,14.72,16.67h0l.09,21.49v2.16l.12,25.33,5.57,2.05L224,242l3.61,1.74-3.44,2.21.12,27.63,6.18,8.45,6.33-9.45.71-83.89h0A24.27,24.27,0,0,0,255.73,164.76ZM234,151.65a3.62,3.62,0,0,1-2.78,1.32,3.52,3.52,0,0,1-2.48-1,3.79,3.79,0,0,1-1.21-2.77,3.74,3.74,0,0,1,3.26-3.78h0l.37,0a3.62,3.62,0,0,1,1.41.28,3.85,3.85,0,0,1,1.41,6Z" fill="none" stroke="#92b7fb" stroke-miterlimit="10" stroke-width="0.69"/><path d="M228.78,151.34a4.2,4.2,0,0,1-1.4-3,4.15,4.15,0,0,1,3.5-4.26h0a19.91,19.91,0,0,0,2,.24H233c4.23.33,4.39-3.17,4.06-5.43a11.56,11.56,0,0,0-.41-1.84,94.29,94.29,0,0,0-3.92-10.71c-3.63,6.26-6.08,11.25-6.39,12.64,0,.13-.05.25-.07.37a25.25,25.25,0,0,0-4,1.41c.86-5.51,4.13-12.93,7.79-19.92-7.85-14.81-24.75-30.73-24.75-30.73l10.17,2.27a181.28,181.28,0,0,1,16.83,24.26c5-9,9.21-16.64,9.21-16.64l8,2.57A179.78,179.78,0,0,0,235.27,122c1,2,2.06,4.07,3.11,6.33A27.39,27.39,0,0,1,241.32,140c-.06,5.84-3.09,9.41-6.74,10.84A10.41,10.41,0,0,1,228.78,151.34Z" fill="#216fdd"/><path d="M143.57,202h61.76a6.18,6.18,0,0,1,6.16,6.16v4.72a6.18,6.18,0,0,1-6.16,6.17h-53l-4.26,7.48a1.23,1.23,0,0,1-2.27-.38l-1.34-7.1h-.88a6.19,6.19,0,0,1-6.17-6.17v-4.72A6.18,6.18,0,0,1,143.57,202Z" fill="#216fdd"/><polygon points="198.73 213.62 201.04 212.38 203.38 213.58 202.91 211 204.77 209.15 202.17 208.79 200.99 206.45 199.85 208.81 197.26 209.22 199.15 211.03 198.73 213.62" fill="none" stroke="#fff" stroke-linecap="round" stroke-linejoin="round" stroke-width="0.49"/><polygon points="183.93 213.62 186.24 212.38 188.57 213.58 188.11 211 189.97 209.15 187.37 208.79 186.19 206.45 185.04 208.81 182.45 209.22 184.35 211.03 183.93 213.62" fill="none" stroke="#fff" stroke-linecap="round" stroke-linejoin="round" stroke-width="0.49"/><polygon points="169.73 213.62 172.04 212.38 174.37 213.58 173.91 211 175.77 209.15 173.17 208.79 171.99 206.45 170.85 208.81 168.25 209.22 170.15 211.03 169.73 213.62" fill="#fff"/><polygon points="156.38 213.62 158.69 212.38 161.02 213.58 160.56 211 162.42 209.15 159.82 208.79 158.64 206.45 157.5 208.81 154.9 209.22 156.8 211.03 156.38 213.62" fill="#fff"/><polygon points="143.85 213.62 146.16 212.38 148.49 213.58 148.03 211 149.89 209.15 147.29 208.79 146.1 206.45 144.96 208.81 142.37 209.22 144.27 211.03 143.85 213.62" fill="#fff"/><path d="M278.46,98.13h61.35a6.13,6.13,0,0,1,6.12,6.12v4.69a6.13,6.13,0,0,1-6.12,6.12H287.16l-4.23,7.43a1.22,1.22,0,0,1-2.26-.37l-1.33-7.06h-.88a6.14,6.14,0,0,1-6.12-6.12v-4.69A6.14,6.14,0,0,1,278.46,98.13Z" fill="#216fdd"/><polygon points="333.26 109.66 335.56 108.43 337.87 109.62 337.41 107.06 339.26 105.22 336.68 104.87 335.5 102.54 334.37 104.89 331.79 105.29 333.68 107.09 333.26 109.66" fill="none" stroke="#fff" stroke-linecap="round" stroke-linejoin="round" stroke-width="0.49"/><polygon points="318.56 109.66 320.85 108.43 323.17 109.62 322.7 107.06 324.55 105.22 321.97 104.87 320.8 102.54 319.66 104.89 317.09 105.29 318.97 107.09 318.56 109.66" fill="#fff"/><polygon points="304.45 109.66 306.75 108.43 309.06 109.62 308.6 107.06 310.45 105.22 307.87 104.87 306.69 102.54 305.56 104.89 302.99 105.29 304.87 107.09 304.45 109.66" fill="#fff"/><polygon points="291.19 109.66 293.49 108.43 295.8 109.62 295.34 107.06 297.19 105.22 294.61 104.87 293.43 102.54 292.3 104.89 289.72 105.29 291.61 107.09 291.19 109.66" fill="#fff"/><polygon points="278.74 109.66 281.04 108.43 283.36 109.62 282.89 107.06 284.74 105.22 282.16 104.87 280.98 102.54 279.85 104.89 277.28 105.29 279.16 107.09 278.74 109.66" fill="#fff"/><rect x="301.64" y="214.58" width="145.89" height="247.96" rx="15.58" fill="#1b2642"/><rect x="259.34" y="274.36" width="230.48" height="128.41" rx="3.39" transform="translate(713.14 -36.02) rotate(90)" fill="#dceef7"/><g clip-path="url(#clip-path)"><path d="M408.54,304.14H380.91a5.66,5.66,0,0,1-5.73-5.58V262.89a5.66,5.66,0,0,1,5.73-5.59h27.63a5.66,5.66,0,0,1,5.73,5.59h0a5.65,5.65,0,0,1-5.73,5.58h-3.81a5.66,5.66,0,0,0-5.73,5.59V286.9a5.66,5.66,0,0,0,5.73,5.58h3.81a5.66,5.66,0,0,1,5.73,5.59v.49A5.65,5.65,0,0,1,408.54,304.14Z" fill="#c8dee8"/><rect x="337.86" y="272.07" width="46.92" height="17.38" rx="6.99" transform="translate(642.08 -80.56) rotate(90)" fill="#c8dee8"/><rect x="428.1" y="353.02" width="22.48" height="9.39" rx="3.77" transform="translate(797.06 -81.62) rotate(90)" fill="#c8dee8"/><rect x="367.91" y="312.45" width="22.48" height="23.89" rx="5.03" transform="translate(703.55 -54.75) rotate(90)" fill="#c8dee8"/><path d="M439.42,307.87l.12-8.52a4.21,4.21,0,0,0-2.15-3.64,13,13,0,0,1-5.18-6.26,4.86,4.86,0,0,0-4.7-2.77l-3.48.11c-3,.09-5.2,2.58-4.6,5.21,1.93,8.47,6.44,15.46,12.32,19.36C434.89,313.44,439.37,311.36,439.42,307.87Z" fill="#c8dee8"/><path d="M439.51,258.18l.12,8.53a5.76,5.76,0,0,1-2.24,2.47,13,13,0,0,0-5.18,6.25,4.86,4.86,0,0,1-4.7,2.77l-3.48-.1c-3-.1-5.2-2.58-4.6-5.22,1.93-8.47,6.44-15.46,12.32-19.35C434.89,251.44,439.37,253.52,439.51,258.18Z" fill="#c8dee8"/><path d="M352.72,226a6.5,6.5,0,0,0-.09,1.09v15.69c0,4.35,4,7.88,8.85,7.88a9.34,9.34,0,0,0,6.24-2.31,7.44,7.44,0,0,0,2.6-5.57V227.1a6.5,6.5,0,0,0-.09-1.09Z" fill="#c8dee8"/><path d="M427.27,250.67c-4.88,0-8.84-3.53-8.84-7.88V227.1a6.5,6.5,0,0,1,.09-1.09H436a6.5,6.5,0,0,1,.09,1.09v15.69a7.43,7.43,0,0,1-2.59,5.57A9.37,9.37,0,0,1,427.27,250.67Z" fill="#c8dee8"/><rect x="374.23" y="232.62" width="39.85" height="18.44" rx="5.93" fill="#c8dee8"/><path d="M323,269c-2.53,0-4.59-2.61-4.59-5.82s2.06-5.83,4.59-5.83,4.58,2.61,4.58,5.83S325.57,269,323,269Z" fill="#c8dee8"/><path d="M330.64,268.79l9.37,4.64a3.67,3.67,0,0,1,2.16,3.31l-.24,26.86a3.78,3.78,0,0,1-2.48,3.38c-.46.19-.93.4-1.38.63a4.56,4.56,0,0,1-5.69-1.22l-17.56-24.61a3.4,3.4,0,0,1-.09-3.88l1.2-1.86a4.48,4.48,0,0,1,5.09-1.66,6.52,6.52,0,0,0,2,.32c3.26,0,6.11-2.39,7.6-5.91Z" fill="#c8dee8"/><path d="M342.29,264l.26-28.82a4,4,0,0,0-4.33-3.78l-20.6.51c-2.86.07-4.81,2.62-3.84,5l4.91,12.2a4.31,4.31,0,0,0,4.19,2.47H323c4.81,0,8.71,5.19,8.71,11.58a15.79,15.79,0,0,1-.12,2v0l4.43,2.13C338.86,268.56,342.26,266.78,342.29,264Z" fill="#c8dee8"/><path d="M307.27,271.19l-5.63-7.89V232.25l2.75-.06a4.23,4.23,0,0,1,4.08,2.47l7.67,18.89a3.32,3.32,0,0,1-.21,2.88,14.18,14.18,0,0,0-1.62,6.7,14.83,14.83,0,0,0,.72,4.6,3.48,3.48,0,0,1-.45,3.17l-.2.29A4.5,4.5,0,0,1,307.27,271.19Z" fill="#c8dee8"/><path d="M314.62,330.47l-13-.05v-16h7.28S315.22,324.76,314.62,330.47Z" fill="#c8dee8"/><path d="M308.27,302.57l-6.63-9V281.7l12.52,17.48a2.84,2.84,0,0,1,.55,1.68,2.88,2.88,0,0,1-.59,1.75A3.76,3.76,0,0,1,308.27,302.57Z" fill="#c8dee8"/><path d="M316.71,307.28,314.28,310a1.7,1.7,0,0,0-.26,2c1.41,2.63,5,9.9,5.38,16.83a2,2,0,0,0,2.07,1.75h0a2,2,0,0,0,2-1.55,32.91,32.91,0,0,1,3.53-10.09A1.69,1.69,0,0,0,327,317l-6.87-9.59A2.23,2.23,0,0,0,316.71,307.28Z" fill="#c8dee8"/><path d="M317.92,375.53H301.64V355.34h16.28a4.66,4.66,0,0,1,4.9,4.35v11.48A4.66,4.66,0,0,1,317.92,375.53Z" fill="#c8dee8"/><path d="M317.33,427.84H301.64V386.5h15.69c3.15,0,5.71,2.28,5.71,5.09v31.17C323,425.57,320.48,427.84,317.33,427.84Z" fill="#c8dee8"/><path d="M338.52,431.09h-4.29a2.34,2.34,0,0,1-2.46-2.19v-6.45a2.34,2.34,0,0,1,2.46-2.19h0a2.34,2.34,0,0,0,2.46-2.19V396.24a2.34,2.34,0,0,0-2.46-2.19h0a2.34,2.34,0,0,1-2.46-2.19v-7.68a2.34,2.34,0,0,1,2.46-2.19h4.29a2.34,2.34,0,0,1,2.46,2.19V428.9A2.34,2.34,0,0,1,338.52,431.09Z" fill="#c8dee8"/><rect x="330.3" y="440.43" width="10.68" height="10.53" rx="4.29" fill="#c8dee8"/><rect x="313.12" y="440.22" width="10.68" height="10.53" rx="4.29" fill="#c8dee8"/><rect x="330.88" y="356.13" width="14.8" height="20.19" rx="5.95" fill="#c8dee8"/><rect x="400.2" y="314.3" width="14.8" height="20.19" rx="5.95" fill="#c8dee8"/><path d="M434.45,431.11l.36-52.07a4.48,4.48,0,0,1,4.71-4.17h0a4.47,4.47,0,0,1,4.7,4.2v52.07a4.47,4.47,0,0,1-4.7,4.19h-.36A4.47,4.47,0,0,1,434.45,431.11Z" fill="#c8dee8"/><path d="M384.66,374.12h-15.3c-3.21,0-5.81-2.31-5.81-5.16h0c0-2.86,2.6-5.17,5.81-5.17h15.3c3.2,0,5.8,2.31,5.8,5.17h0C390.46,371.81,387.86,374.12,384.66,374.12Z" fill="#c8dee8"/><path d="M384.69,450.14H368.78c-3,0-5.5-2.19-5.5-4.89v-.55c0-2.7,2.46-4.89,5.5-4.89h15.91c3,0,5.5,2.19,5.5,4.89v.55C390.19,448,387.73,450.14,384.69,450.14Z" fill="#c8dee8"/><path d="M440.49,335.66H424.57c-3,0-5.49-2.19-5.49-4.89v-.55c0-2.7,2.46-4.89,5.49-4.89h15.92c3,0,5.49,2.19,5.49,4.89v.55C446,333.47,443.52,335.66,440.49,335.66Z" fill="#c8dee8"/><path d="M357.15,425.42l0-40.63c0-2.7,2.46-4.89,5.49-4.9h0c3,0,5.5,2.19,5.51,4.89l0,40.63c0,2.7-2.46,4.9-5.49,4.9h0A5.22,5.22,0,0,1,357.15,425.42Z" fill="#c8dee8"/><path d="M375.22,425.42l0-40.63c0-2.7,2.45-4.89,5.49-4.9h0c3,0,5.5,2.19,5.5,4.89l0,40.63a5.22,5.22,0,0,1-5.48,4.9h0C377.69,430.32,375.22,428.13,375.22,425.42Z" fill="#c8dee8"/><path d="M419.36,374.12h-15.3c-3.21,0-5.81-2.31-5.81-5.16h0c0-2.86,2.6-5.17,5.81-5.17h15.3c3.2,0,5.8,2.31,5.8,5.17h0C425.16,371.81,422.56,374.12,419.36,374.12Z" fill="#c8dee8"/><path d="M418.44,451.11H402.52c-3,0-5.49-2.19-5.49-4.89v-.55c0-2.7,2.46-4.89,5.49-4.89h15.92c3,0,5.5,2.19,5.5,4.89v.55C423.94,448.92,421.47,451.11,418.44,451.11Z" fill="#c8dee8"/><path d="M394,425.42l0-40.63c0-2.7,2.45-4.89,5.48-4.9h0c3,0,5.51,2.19,5.51,4.89l0,40.63c0,2.7-2.45,4.9-5.49,4.9h0C396.43,430.32,394,428.13,394,425.42Z" fill="#c8dee8"/><path d="M411.15,425.42l0-40.63c0-2.7,2.45-4.89,5.49-4.9h0c3,0,5.5,2.19,5.5,4.89l0,40.63a5.22,5.22,0,0,1-5.48,4.9h0C413.62,430.32,411.15,428.13,411.15,425.42Z" fill="#c8dee8"/><path d="M441.82,290.29c-3.15,0-5.7-3.39-5.7-7.57s2.55-7.56,5.7-7.56,5.7,3.38,5.7,7.56S445,290.29,441.82,290.29Z" fill="#c8dee8"/><path d="M384.66,357.72h-15.3c-3.21,0-5.81-2.31-5.81-5.17h0c0-2.85,2.6-5.17,5.81-5.17h15.3c3.2,0,5.8,2.32,5.8,5.17h0C390.46,355.41,387.86,357.72,384.66,357.72Z" fill="#c8dee8"/><path d="M419.45,357.72h-15.3c-3.2,0-5.8-2.31-5.8-5.17h0c0-2.85,2.6-5.17,5.8-5.17h15.3c3.21,0,5.81,2.32,5.81,5.17h0C425.26,355.41,422.66,357.72,419.45,357.72Z" fill="#c8dee8"/><path d="M343.71,347.1l.07-5a2.5,2.5,0,0,0-1.27-2.16,7.73,7.73,0,0,1-3.07-3.7,2.85,2.85,0,0,0-2.78-1.64l-2.06.06a2.66,2.66,0,0,0-2.72,3.09c1.14,5,3.81,9.15,7.29,11.45C341,350.4,343.68,349.17,343.71,347.1Z" fill="#c8dee8"/><path d="M343.71,317l.07,5a2.5,2.5,0,0,1-1.27,2.16,7.68,7.68,0,0,0-3.07,3.7,2.87,2.87,0,0,1-2.78,1.64l-2.06-.06a2.66,2.66,0,0,1-2.72-3.09c1.14-5,3.81-9.15,7.29-11.46C341,313.7,343.68,314.93,343.71,317Z" fill="#c8dee8"/><path d="M345.13,336.69c-1.86,0-3.37-2-3.37-4.48s1.51-4.47,3.37-4.47,3.37,2,3.37,4.47S347,336.69,345.13,336.69Z" fill="#c8dee8"/><path d="M348.64,347.15l-.13-5a2.46,2.46,0,0,1,1.24-2.17,7.64,7.64,0,0,0,3-3.73,2.86,2.86,0,0,1,2.76-1.67l2.06,0a2.66,2.66,0,0,1,2.77,3.05c-1.08,5-3.69,9.2-7.14,11.54C351.37,350.42,348.7,349.22,348.64,347.15Z" fill="#c8dee8"/><path d="M349.05,317l-.36,5a2.46,2.46,0,0,0,1.15,2.21,7.47,7.47,0,0,1,2.85,3.83,2.85,2.85,0,0,0,2.69,1.76l2.06,0a2.7,2.7,0,0,0,2.9-3c-.86-5.06-3.3-9.31-6.64-11.77C351.91,313.83,349.19,314.94,349.05,317Z" fill="#c8dee8"/><path d="M439.66,448.77c-3.08,0-5.58-2.23-5.58-5s2.5-5,5.58-5,5.59,2.23,5.59,5S442.75,448.77,439.66,448.77Z" fill="#c8dee8"/><path d="M434.28,442.47s3.2,5.8,7.19,6a5.91,5.91,0,0,1-6-1.42A4.71,4.71,0,0,1,434.28,442.47Z" fill="#c8dee8"/></g><path d="M339.71,216.94h69.74a0,0,0,0,1,0,0v5.25a5.33,5.33,0,0,1-5.33,5.33H345a5.33,5.33,0,0,1-5.33-5.33v-5.25A0,0,0,0,1,339.71,216.94Z" fill="#1b2642"/><rect x="334.2" y="279.51" width="1.04" height="18.45" rx="0.24" fill="#2a3b69"/><path d="M339.68,276.14a5,5,0,1,1-5-4.82A4.9,4.9,0,0,1,339.68,276.14Z" fill="#216fdd"/><rect x="407.59" y="247.11" width="1.04" height="18.45" rx="0.24" fill="#2a3b69"/><path d="M413.07,243.74a5,5,0,1,1-5-4.82A4.9,4.9,0,0,1,413.07,243.74Z" fill="#216fdd"/><rect x="336.02" y="408.12" width="1.04" height="18.45" rx="0.24" fill="#2a3b69"/><path d="M341.5,404.74a5,5,0,1,1-5-4.82A4.89,4.89,0,0,1,341.5,404.74Z" fill="#216fdd"/><path d="M475.66,397.37c22.24-33.13,16.18-79.05-14.89-105h0a75.2,75.2,0,0,0-107.68,11c-26.46,33.36-21.41,82.73,11.25,110.05a75.23,75.23,0,0,0,86.51,7.49,76.07,76.07,0,0,0,16.91-13.56l77.09,64.5a6.35,6.35,0,1,0,8.15-9.74Zm-56.43,20.76a62.44,62.44,0,0,1-46.74-14.49c-27.43-22.94-31.67-64.4-9.45-92.42a63.83,63.83,0,0,1,17.65-15.41,62.51,62.51,0,0,1,71.94,6.26c27.43,22.95,31.66,64.41,9.44,92.43A62.44,62.44,0,0,1,419.23,418.13Z" fill="#216fdd"/><line x1="478.34" y1="412.99" x2="538.99" y2="463.42" fill="none" opacity="0.43" stroke-linecap="round" stroke-linejoin="round" stroke-width="1.06" stroke="#fff"/><path d="M346.2,320.84s-14.67,30.15,0,64" fill="none" stroke="#fff" stroke-linecap="round" stroke-linejoin="round" stroke-width="1.06" opacity="0.43"/><path d="M445.81,345a33.25,33.25,0,1,0-40.64,32.42l7.39,6.86,7.39-6.86A33.27,33.27,0,0,0,445.81,345Z" fill="#216fdd"/><path d="M430.31,335.9h3.93a.33.33,0,0,0,.19-.6l-21.68-15.12a.33.33,0,0,0-.38,0L390.68,335.3a.33.33,0,0,0,.19.6h3.93a.33.33,0,0,1,.33.33v23.39a.33.33,0,0,1-.33.33h-4.65a.33.33,0,0,0-.33.33v2a.33.33,0,0,0,.33.33H435a.33.33,0,0,0,.33-.33v-2A.33.33,0,0,0,435,360h-4.65a.33.33,0,0,1-.33-.33V336.23A.33.33,0,0,1,430.31,335.9Zm-8.64,3.18h5.09a.33.33,0,0,1,.33.33v7.42a.33.33,0,0,1-.33.33h-5.09a.33.33,0,0,1-.33-.33v-7.42A.33.33,0,0,1,421.67,339.08Zm-23.32,0h5.1a.33.33,0,0,1,.33.33v7.42a.33.33,0,0,1-.33.33h-5.1a.33.33,0,0,1-.33-.33v-7.42A.33.33,0,0,1,398.35,339.08Zm10.2,7.57h8a.33.33,0,0,1,.33.33v12.64a.33.33,0,0,1-.33.33h-8a.33.33,0,0,1-.33-.33V347A.33.33,0,0,1,408.55,346.65Z" fill="#fff"/><path d="M415.34,390.44a2.78,2.78,0,1,1-2.78-2.78A2.78,2.78,0,0,1,415.34,390.44Z" fill="#216fdd"/><path d="M370.49,391.82a59.45,59.45,0,0,1-10.4-62.16" fill="none" stroke="#fff" stroke-linecap="round" stroke-linejoin="round" stroke-width="5.29"/><path d="M319.27,378.51l-24.91,4.37-42,58.73,28.83,20.62L322.81,404Zm-6.85,10.59a3,3,0,1,1,3.25-.54A3,3,0,0,1,312.42,389.1Z" fill="#216fdd"/><text transform="translate(279.93 451.03) rotate(-55.1)" font-size="22.14" fill="#fff" font-family="SpartanMB-Bold, SpartanMB Bold" font-weight="700">RENT</text><path d="M313.64,386.39s20.76-22.89,17.86-25-11.15,9.39-15.76,16.79" fill="none" stroke="#001246" stroke-miterlimit="10" stroke-width="0.53"/></g></svg>