<svg xmlns="http://www.w3.org/2000/svg" xmlns:xlink="http://www.w3.org/1999/xlink" viewBox="0 0 3710 3710"><defs><linearGradient id="linear-gradient" x1="1997.36" y1="2641.63" x2="316.92" y2="-264.13" gradientUnits="userSpaceOnUse"><stop offset="0" stop-color="#aa80f9"/><stop offset="1" stop-color="#6165d7"/></linearGradient><linearGradient id="linear-gradient-2" x1="733.2" y1="1212.44" x2="1628.13" y2="2685.73" gradientUnits="userSpaceOnUse"><stop offset="0" stop-color="#e38ddd"/><stop offset="1" stop-color="#9571f6"/></linearGradient><clipPath id="clip-path"><path d="M1141.73,2123.52c-18.9,31.33-51.83,73.86-87.49,123.19l595.09,86.16c-66.57-181.22-160.41-371.53-20.25-686.2,65.77-147.66,240.57-407.28,168.62-580.41-82-197.25-244.14-112.08-285.29-264.79-64.32-238.68-267.49-404.73-485.76-286.1-215.42,117.07-208.19,544.83,75.66,1012.78C1267.92,1886.93,1240.42,1959.93,1141.73,2123.52Z" fill="url(#linear-gradient)"/></clipPath><clipPath id="clip-path-2"><path d="M1123.73,1465.78C1127,1742,1260.21,1651,1383.07,1678.26c141.8,205.16,155.16,395.51-56.55,559.89l-235.9-35.3c-87.53-4.06-190.24-30.81-184.44-147.36,6.55-131.82,37.73-215.54-111.06-280.27S582.43,1592.36,642.68,1458c63.4-141.39-85.31-332,23.37-426.71C855.42,866.23,1120.36,1178.12,1123.73,1465.78Z" fill="url(#linear-gradient-2)"/></clipPath><linearGradient id="linear-gradient-5" x1="555.49" y1="2163.6" x2="2552.05" y2="2163.6" gradientUnits="userSpaceOnUse"><stop offset="0" stop-color="#d8dee8"/><stop offset="1" stop-color="#fff"/></linearGradient><linearGradient id="linear-gradient-6" x1="445.56" y1="1492.48" x2="1176.38" y2="1492.48" gradientUnits="userSpaceOnUse"><stop offset="0" stop-color="#216fdd"/><stop offset="1" stop-color="#378df4"/></linearGradient><linearGradient id="linear-gradient-7" x1="1909.79" y1="3312.41" x2="2231.74" y2="1095.29" xlink:href="#linear-gradient-5"/><linearGradient id="linear-gradient-8" x1="1887.35" y1="2353.06" x2="1973.48" y2="2812.43" xlink:href="#linear-gradient-5"/><linearGradient id="linear-gradient-9" x1="1338.2" y1="1275.1" x2="2384" y2="1275.1" xlink:href="#linear-gradient-6"/><linearGradient id="linear-gradient-10" x1="910.15" y1="1225.16" x2="1359.14" y2="1225.16" gradientUnits="userSpaceOnUse"><stop offset="0" stop-color="#ff9085"/><stop offset="1" stop-color="#fb6fbb"/></linearGradient><linearGradient id="linear-gradient-11" x1="2548.51" y1="1906.98" x2="3123.01" y2="1906.98" xlink:href="#linear-gradient-5"/><linearGradient id="linear-gradient-12" x1="2029.01" y1="1485.75" x2="3222.45" y2="1485.75" xlink:href="#linear-gradient-6"/><linearGradient id="linear-gradient-13" x1="1759" y1="791.19" x2="2392.43" y2="2970.05" xlink:href="#linear-gradient-2"/><linearGradient id="linear-gradient-14" x1="1902.63" y1="658.08" x2="2561.97" y2="2926.08" xlink:href="#linear-gradient-2"/><linearGradient id="linear-gradient-15" x1="373.85" y1="882.34" x2="954.69" y2="2880.29" xlink:href="#linear-gradient-2"/><linearGradient id="linear-gradient-16" x1="507.66" y1="767.53" x2="1108.9" y2="2835.66" xlink:href="#linear-gradient-2"/><linearGradient id="linear-gradient-17" x1="2430.82" y1="855.06" x2="3016.74" y2="2870.46" xlink:href="#linear-gradient-2"/><linearGradient id="linear-gradient-18" x1="2627.12" y1="892.92" x2="3155.76" y2="2711.34" xlink:href="#linear-gradient-2"/><linearGradient id="linear-gradient-19" x1="1301.67" y1="2157.69" x2="1325.04" y2="2157.69" xlink:href="#linear-gradient-5"/><linearGradient id="linear-gradient-20" x1="1214.01" y1="2538.8" x2="1576.83" y2="2538.8" xlink:href="#linear-gradient-5"/><linearGradient id="linear-gradient-21" x1="1312.88" y1="2547.87" x2="1576.83" y2="2547.87" xlink:href="#linear-gradient-5"/><linearGradient id="linear-gradient-22" x1="1055.52" y1="2547.87" x2="1498.81" y2="2547.87" xlink:href="#linear-gradient-5"/><linearGradient id="linear-gradient-23" x1="1265.63" y1="1210.14" x2="1730.82" y2="1934.92" xlink:href="#linear-gradient-2"/><linearGradient id="linear-gradient-24" x1="3726.25" y1="547.91" x2="-117.24" y2="2501.95" xlink:href="#linear-gradient-10"/><linearGradient id="linear-gradient-25" x1="2958.95" y1="1982.61" x2="2515.52" y2="2272.77" gradientUnits="userSpaceOnUse"><stop offset="0" stop-color="#ffc444"/><stop offset="1" stop-color="#f36f56"/></linearGradient><linearGradient id="linear-gradient-26" x1="3095.7" y1="2617.69" x2="3213.07" y2="3041.23" gradientTransform="translate(-240.46 65.44) rotate(4.58)" gradientUnits="userSpaceOnUse"><stop offset="0" stop-color="#311944"/><stop offset="1" stop-color="#893976"/></linearGradient><linearGradient id="linear-gradient-27" x1="3200.16" y1="2917.14" x2="3201.86" y2="2774.26" gradientTransform="translate(-240.46 65.44) rotate(4.58)" xlink:href="#linear-gradient-25"/><linearGradient id="linear-gradient-28" x1="3242.64" y1="2576.97" x2="3360.01" y2="3000.51" xlink:href="#linear-gradient-26"/><linearGradient id="linear-gradient-29" x1="3365.38" y1="2919.1" x2="3367.08" y2="2776.22" gradientTransform="translate(-240.46 65.44) rotate(4.58)" xlink:href="#linear-gradient-25"/><linearGradient id="linear-gradient-30" x1="3117.78" y1="2457.62" x2="3269.91" y2="2457.62" gradientTransform="translate(-240.46 65.44) rotate(4.58)" gradientUnits="userSpaceOnUse"><stop offset="0" stop-color="#444b8c"/><stop offset="1" stop-color="#26264f"/></linearGradient><linearGradient id="linear-gradient-31" x1="3117.79" y1="2457.62" x2="3269.91" y2="2457.62" xlink:href="#linear-gradient-30"/><linearGradient id="linear-gradient-32" x1="3203.67" y1="2479.35" x2="3434.61" y2="2479.35" xlink:href="#linear-gradient-30"/><linearGradient id="linear-gradient-33" x1="3667.85" y1="2506.72" x2="3152.45" y2="1766.8" gradientTransform="translate(-240.46 65.44) rotate(4.58)" xlink:href="#linear-gradient-25"/><linearGradient id="linear-gradient-34" x1="3667.8" y1="2506.76" x2="3152.39" y2="1766.82" gradientTransform="translate(-240.46 65.44) rotate(4.58)" xlink:href="#linear-gradient-25"/><linearGradient id="linear-gradient-35" x1="3353.95" y1="2096.32" x2="3437.09" y2="2096.32" gradientTransform="translate(-240.46 65.44) rotate(4.58)" xlink:href="#linear-gradient-25"/><linearGradient id="linear-gradient-36" x1="3812.38" y1="2406.04" x2="3296.98" y2="1666.11" gradientTransform="translate(-240.46 65.44) rotate(4.58)" xlink:href="#linear-gradient-25"/><linearGradient id="linear-gradient-37" x1="683.27" y1="250.74" x2="716.96" y2="-270.02" gradientTransform="matrix(0.78, 0.63, -0.63, 0.78, 3083.92, 622.2)" xlink:href="#linear-gradient-25"/><linearGradient id="linear-gradient-38" x1="3233.51" y1="1635.27" x2="3171.88" y2="1478.75" gradientTransform="translate(-240.46 65.44) rotate(4.58)" gradientUnits="userSpaceOnUse"><stop offset="0" stop-color="#444b8c"/><stop offset="1" stop-color="#3e4177"/></linearGradient><linearGradient id="linear-gradient-39" x1="620.33" y1="246.67" x2="654.03" y2="-274.1" gradientTransform="matrix(0.78, 0.63, -0.63, 0.78, 3083.92, 622.2)" xlink:href="#linear-gradient-25"/><linearGradient id="linear-gradient-40" x1="138.22" y1="2209.7" x2="191.95" y2="2209.7" gradientTransform="matrix(-1, 0, 0, 1, 2068.19, 0)" xlink:href="#linear-gradient-25"/><linearGradient id="linear-gradient-41" x1="7831.46" y1="3057.1" x2="7847.68" y2="3349.04" gradientTransform="translate(-5583.78)" xlink:href="#linear-gradient-30"/><linearGradient id="linear-gradient-42" x1="7862.09" y1="3200.97" x2="7853.48" y2="2806.8" gradientTransform="translate(-5583.78)" xlink:href="#linear-gradient-25"/><linearGradient id="linear-gradient-43" x1="8125.02" y1="3040.8" x2="8141.24" y2="3332.73" gradientTransform="translate(-5583.78)" xlink:href="#linear-gradient-30"/><linearGradient id="linear-gradient-44" x1="8120.55" y1="3195.32" x2="8111.93" y2="2801.16" gradientTransform="translate(-5583.78)" xlink:href="#linear-gradient-25"/><linearGradient id="linear-gradient-45" x1="7736.95" y1="2944.78" x2="7900.65" y2="2725.08" gradientTransform="translate(-5583.78)" gradientUnits="userSpaceOnUse"><stop offset="0" stop-color="#311944"/><stop offset="1" stop-color="#6b3976"/></linearGradient><linearGradient id="linear-gradient-46" x1="7858.55" y1="2972.05" x2="8241.95" y2="2614.49" xlink:href="#linear-gradient-45"/><linearGradient id="linear-gradient-47" x1="7536.16" y1="2187.79" x2="7959.54" y2="2149.63" gradientTransform="translate(-5583.78)" xlink:href="#linear-gradient-10"/><linearGradient id="linear-gradient-48" x1="8356.61" y1="2494.58" x2="7970.42" y2="2160.8" xlink:href="#linear-gradient-45"/><linearGradient id="linear-gradient-49" x1="7757.83" y1="2960.34" x2="7921.53" y2="2740.64" xlink:href="#linear-gradient-45"/><linearGradient id="linear-gradient-50" x1="7744.56" y1="3236.82" x2="8052.09" y2="3236.82" gradientTransform="translate(-6204.02 96.61) rotate(-7.89)" xlink:href="#linear-gradient-10"/><linearGradient id="linear-gradient-51" x1="7554.39" y1="2390" x2="7977.76" y2="2351.84" gradientTransform="translate(-5583.78)" xlink:href="#linear-gradient-10"/><linearGradient id="linear-gradient-52" x1="8005.06" y1="1998.35" x2="8097.82" y2="2565.65" gradientTransform="translate(-5583.78)" xlink:href="#linear-gradient-10"/><linearGradient id="linear-gradient-53" x1="7848.13" y1="2011.75" x2="7948.29" y2="1866.36" gradientTransform="translate(-5583.78)" xlink:href="#linear-gradient-25"/><linearGradient id="linear-gradient-54" x1="7402.77" y1="4965.34" x2="7565.53" y2="4867.35" gradientTransform="translate(-6654.43 2143.55) rotate(-35.09)" xlink:href="#linear-gradient-25"/><linearGradient id="linear-gradient-55" x1="2377.72" y1="2653.88" x2="2385.44" y2="2653.88" gradientTransform="matrix(1, 0, 0, 1, 0, 0)" xlink:href="#linear-gradient-30"/><linearGradient id="linear-gradient-56" x1="2485.76" y1="2653.88" x2="2493.48" y2="2653.88" gradientTransform="matrix(1, 0, 0, 1, 0, 0)" xlink:href="#linear-gradient-30"/><linearGradient id="linear-gradient-57" x1="2362.29" y1="2636.52" x2="2508.91" y2="2636.52" gradientTransform="matrix(1, 0, 0, 1, 0, 0)" xlink:href="#linear-gradient-30"/><linearGradient id="linear-gradient-58" x1="2308.27" y1="2574.78" x2="2327.56" y2="2574.78" gradientTransform="matrix(1, 0, 0, 1, 0, 0)" xlink:href="#linear-gradient-30"/><linearGradient id="linear-gradient-59" x1="2543.64" y1="2574.78" x2="2562.93" y2="2574.78" gradientTransform="matrix(1, 0, 0, 1, 0, 0)" xlink:href="#linear-gradient-30"/><linearGradient id="linear-gradient-60" x1="2294.83" y1="2433.95" x2="2577.59" y2="2433.95" gradientTransform="matrix(1, 0, 0, 1, 0, 0)" xlink:href="#linear-gradient-30"/><linearGradient id="linear-gradient-61" x1="2549.01" y1="3196.64" x2="2580.6" y2="3196.64" gradientTransform="matrix(1, 0, 0, 1, 0, 0)" xlink:href="#linear-gradient-30"/><linearGradient id="linear-gradient-62" x1="2551.36" y1="3163.21" x2="2578.37" y2="3163.21" xlink:href="#linear-gradient"/><linearGradient id="linear-gradient-63" x1="2292.44" y1="3198" x2="2324.45" y2="3198" gradientTransform="matrix(1, 0, 0, 1, 0, 0)" xlink:href="#linear-gradient-30"/><linearGradient id="linear-gradient-64" x1="2292.83" y1="3163.21" x2="2319.84" y2="3163.21" xlink:href="#linear-gradient"/><linearGradient id="linear-gradient-65" x1="2238.81" y1="2912.4" x2="2632.38" y2="2912.4" xlink:href="#linear-gradient"/><linearGradient id="linear-gradient-66" x1="2277.4" y1="2913.91" x2="2331.42" y2="2913.91" xlink:href="#linear-gradient"/><linearGradient id="linear-gradient-67" x1="2300.55" y1="2913.91" x2="2331.42" y2="2913.91" xlink:href="#linear-gradient"/><linearGradient id="linear-gradient-68" x1="2366.15" y1="2913.91" x2="2420.17" y2="2913.91" xlink:href="#linear-gradient"/><linearGradient id="linear-gradient-69" x1="2389.3" y1="2913.91" x2="2420.17" y2="2913.91" xlink:href="#linear-gradient"/><linearGradient id="linear-gradient-70" x1="2454.89" y1="2913.91" x2="2508.91" y2="2913.91" xlink:href="#linear-gradient"/><linearGradient id="linear-gradient-71" x1="2474.18" y1="2913.91" x2="2508.91" y2="2913.91" xlink:href="#linear-gradient"/><linearGradient id="linear-gradient-72" x1="2543.64" y1="2913.91" x2="2593.8" y2="2913.91" xlink:href="#linear-gradient"/><linearGradient id="linear-gradient-73" x1="2566.79" y1="2913.91" x2="2593.8" y2="2913.91" xlink:href="#linear-gradient"/><linearGradient id="linear-gradient-74" x1="8010.04" y1="2378.44" x2="8001.69" y2="2038.55" gradientTransform="translate(-5583.78)" xlink:href="#linear-gradient-10"/><linearGradient id="linear-gradient-75" x1="7962.73" y1="2404.17" x2="8049.5" y2="2467.68" gradientTransform="translate(-5583.78)" xlink:href="#linear-gradient-25"/><linearGradient id="linear-gradient-76" x1="3227.82" y1="2478.31" x2="3223.25" y2="2557.9" gradientTransform="matrix(-1, 0, 0, 1, 5935.3, 0)" xlink:href="#linear-gradient-25"/><linearGradient id="linear-gradient-77" x1="3132.44" y1="2480.33" x2="3120.94" y2="2680.47" gradientTransform="matrix(-1, 0, 0, 1, 5935.3, 0)" xlink:href="#linear-gradient-2"/><linearGradient id="linear-gradient-78" x1="2881.62" y1="2895.73" x2="2740.32" y2="2967.56" gradientTransform="matrix(-1, 0, 0, 1, 5935.3, 0)" xlink:href="#linear-gradient-30"/><linearGradient id="linear-gradient-79" x1="-9742.31" y1="907.88" x2="-9739.11" y2="949.54" gradientTransform="translate(5195.1 -6628.44) rotate(-72.05)" xlink:href="#linear-gradient-25"/><linearGradient id="linear-gradient-80" x1="2912.15" y1="3093.6" x2="3049.88" y2="3273.48" gradientTransform="matrix(-1, 0, 0, 1, 5935.3, 0)" xlink:href="#linear-gradient-30"/><linearGradient id="linear-gradient-81" x1="-5060.79" y1="4596.5" x2="-5077.38" y2="4673.22" gradientTransform="translate(9360.14 5838.63) rotate(65.59)" xlink:href="#linear-gradient-25"/><linearGradient id="linear-gradient-82" x1="3038.61" y1="2692.06" x2="2976.27" y2="3014.43" gradientTransform="matrix(-1, 0, 0, 1, 5935.3, 0)" xlink:href="#linear-gradient-45"/><linearGradient id="linear-gradient-83" x1="-8605.44" y1="5130.28" x2="-8407.34" y2="5287.02" gradientTransform="translate(12539.1 419.91) rotate(17.95)" xlink:href="#linear-gradient-45"/><linearGradient id="linear-gradient-84" x1="2914.87" y1="2711.68" x2="3042.21" y2="3123.1" gradientTransform="matrix(-1, 0, 0, 1, 5935.3, 0)" xlink:href="#linear-gradient-45"/><linearGradient id="linear-gradient-85" x1="2956.35" y1="2416.96" x2="3012.71" y2="2893.16" gradientTransform="matrix(-1, 0, 0, 1, 5935.3, 0)" xlink:href="#linear-gradient-2"/><linearGradient id="linear-gradient-86" x1="-10927.8" y1="1748.98" x2="-10999.1" y2="1567.9" gradientTransform="translate(14046.72 2787.67) rotate(10.21)" xlink:href="#linear-gradient-45"/><linearGradient id="linear-gradient-87" x1="-8386.8" y1="3082.15" x2="-8402.29" y2="3214.17" gradientTransform="translate(11646.21 263.15) rotate(6.33)" xlink:href="#linear-gradient-25"/><linearGradient id="linear-gradient-88" x1="2915.43" y1="2291.78" x2="2953.84" y2="2685.06" xlink:href="#linear-gradient-25"/><linearGradient id="linear-gradient-89" x1="2748.22" y1="710.24" x2="2997.44" y2="2815.89" gradientTransform="matrix(-1, 0, 0, 1, 5935.3, 0)" xlink:href="#linear-gradient-2"/><linearGradient id="linear-gradient-90" x1="5305.87" y1="2094.56" x2="5069.88" y2="1847.44" gradientTransform="matrix(0.39, 0.92, 0.92, -0.39, -713.16, -1171.48)" xlink:href="#linear-gradient-25"/><linearGradient id="linear-gradient-91" x1="2838.92" y1="2430.86" x2="2895.28" y2="2907.05" gradientTransform="matrix(-1, 0, 0, 1, 5935.3, 0)" xlink:href="#linear-gradient-2"/><linearGradient id="linear-gradient-92" x1="-4914.04" y1="2996.94" x2="-4896.06" y2="3225.8" gradientTransform="matrix(-1, 0, 0, 1, -3871.04, 0)" gradientUnits="userSpaceOnUse"><stop offset="0" stop-color="#311944"/><stop offset="1" stop-color="#a03976"/></linearGradient><linearGradient id="linear-gradient-93" x1="-4867.62" y1="3124.35" x2="-4870.89" y2="2887.32" gradientTransform="matrix(-1, 0, 0, 1, -3871.04, 0)" xlink:href="#linear-gradient-25"/><linearGradient id="linear-gradient-94" x1="-4574.22" y1="2970.24" x2="-4556.24" y2="3199.1" xlink:href="#linear-gradient-92"/><linearGradient id="linear-gradient-95" x1="-4556.19" y1="3120.06" x2="-4559.46" y2="2883.02" gradientTransform="matrix(-1, 0, 0, 1, -3871.04, 0)" xlink:href="#linear-gradient-25"/><linearGradient id="linear-gradient-96" x1="-4924.19" y1="2740.36" x2="-4748.93" y2="2740.36" gradientTransform="matrix(-1, 0, 0, 1, -3871.04, 0)" xlink:href="#linear-gradient-38"/><linearGradient id="linear-gradient-97" x1="-4924.19" y1="2740.37" x2="-4748.93" y2="2740.37" gradientTransform="matrix(-1, 0, 0, 1, -3871.04, 0)" xlink:href="#linear-gradient-38"/><linearGradient id="linear-gradient-98" x1="-4875.54" y1="2723.09" x2="-4522.72" y2="2723.09" gradientTransform="matrix(-1, 0, 0, 1, -3871.04, 0)" xlink:href="#linear-gradient-38"/><linearGradient id="linear-gradient-99" x1="6307.78" y1="2702.85" x2="6436.82" y2="1972.42" gradientTransform="translate(-5331.97)" xlink:href="#linear-gradient"/><linearGradient id="linear-gradient-100" x1="6008.41" y1="2655.19" x2="6138.37" y2="1919.56" gradientTransform="translate(-5331.97)" xlink:href="#linear-gradient"/><linearGradient id="linear-gradient-101" x1="1073.85" y1="2117.98" x2="1073.85" y2="1953.07" xlink:href="#linear-gradient-25"/><linearGradient id="linear-gradient-102" x1="908.81" y1="1897.49" x2="851.58" y2="1752.15" gradientTransform="matrix(-1, 0.01, 0.01, 1, 1964.94, 157.7)" xlink:href="#linear-gradient-45"/><linearGradient id="linear-gradient-103" x1="795.33" y1="2221.35" x2="696.35" y2="2635.02" gradientTransform="matrix(1, -0.05, 0.05, 1, 164.19, 3.96)" xlink:href="#linear-gradient-25"/><linearGradient id="linear-gradient-104" x1="891.33" y1="1904.46" x2="834.04" y2="1758.96" gradientTransform="matrix(-1, 0.01, 0.01, 1, 1964.94, 157.7)" xlink:href="#linear-gradient-45"/><linearGradient id="linear-gradient-105" x1="817.71" y1="2226.7" x2="718.73" y2="2640.37" gradientTransform="matrix(1, -0.05, 0.05, 1, 164.19, 3.96)" xlink:href="#linear-gradient-25"/><linearGradient id="linear-gradient-106" x1="1015.33" y1="2353.86" x2="1015.33" y2="2093.59" gradientTransform="matrix(1, 0, 0, 1, 0, 0)" xlink:href="#linear-gradient-30"/><linearGradient id="linear-gradient-107" x1="1056.61" y1="2123.81" x2="1056.61" y2="2079.12" gradientTransform="matrix(1, 0, 0, 1, 0, 0)" xlink:href="#linear-gradient-30"/><linearGradient id="linear-gradient-108" x1="-816.64" y1="1812.07" x2="352.53" y2="4554.31" gradientTransform="matrix(0.95, -0.32, 0.32, 0.95, 925.14, -65.41)" gradientUnits="userSpaceOnUse"><stop offset="0" stop-color="#ab316d"/><stop offset="1" stop-color="#792d3d"/></linearGradient><linearGradient id="linear-gradient-109" x1="6545.47" y1="1115.53" x2="6165.86" y2="1969.65" gradientTransform="translate(-4831.89 441.04) rotate(5.61)" xlink:href="#linear-gradient-25"/><linearGradient id="linear-gradient-110" x1="-559.85" y1="1896.6" x2="-943.94" y2="2760.8" gradientTransform="matrix(0.95, -0.32, 0.32, 0.95, 925.14, -65.41)" xlink:href="#linear-gradient-25"/><linearGradient id="linear-gradient-111" x1="-746.17" y1="1928.04" x2="191.48" y2="4127.25" gradientTransform="matrix(0.95, -0.32, 0.32, 0.95, 925.14, -65.41)" xlink:href="#linear-gradient-25"/><linearGradient id="linear-gradient-112" x1="-875.12" y1="2015" x2="-293.39" y2="3379.41" gradientTransform="matrix(0.95, -0.32, 0.32, 0.95, 925.14, -65.41)" xlink:href="#linear-gradient-25"/><linearGradient id="linear-gradient-113" x1="6013.99" y1="2447.02" x2="6028.12" y2="2367.03" gradientTransform="translate(-5331.97)" xlink:href="#linear-gradient-25"/><linearGradient id="linear-gradient-114" x1="-1512.71" y1="2998.7" x2="-1448.87" y2="2998.7" gradientTransform="matrix(-0.9, 0.43, 0.43, 0.9, -1361.55, 418.02)" xlink:href="#linear-gradient-25"/></defs><title>on2</title><g style="isolation:isolate"><g id="Background"><rect width="3710" height="3710" fill="#fff"/></g><g id="Illustration"><path d="M1615.38,3230.8C896,3121.86,311.41,2441.71,417.62,1685.75,508.23,1041,1073.47,539.3,1751.31,491.92q73.62-5.16,148.84-3.05c378.14,10.93,714.12,162.18,962.61,391,247.32,227.78,408,532.44,437.25,852.07C3377.92,2582.39,2510.11,3366.3,1615.38,3230.8Z" fill="#f4f7fa"/><path d="M1141.73,2123.52c-18.9,31.33-51.83,73.86-87.49,123.19l595.09,86.16c-66.57-181.22-160.41-371.53-20.25-686.2,65.77-147.66,240.57-407.28,168.62-580.41-82-197.25-244.14-112.08-285.29-264.79-64.32-238.68-267.49-404.73-485.76-286.1-215.42,117.07-208.19,544.83,75.66,1012.78C1267.92,1886.93,1240.42,1959.93,1141.73,2123.52Z" fill="url(#linear-gradient)"/><g clip-path="url(#clip-path)"><g style="mix-blend-mode:soft-light"><path d="M1366.89,2256.77c4.3-78.15,4.39-152.08,4.48-230.35l0-26.1c-2.28-37.69-3.5-74.92-4.68-110.92-2.66-81.29-5.18-158.08-18.94-239.6-.27-4.76-.29-9.38-.32-14.28-.09-17.49-.18-35.57-10.33-52.87l-.24-.71C1296,1150.79,1165.48,720.87,949,304.1l3.09-1.61c216.66,417,347.3,847.27,388.28,1278.73,10.43,18,10.53,37.27,10.62,54.28,0,4.86,0,9.44.29,13.92,13.77,81.55,16.3,158.45,19,239.87,1.18,36,2.4,73.18,4.67,110.93l0,26.2c-.1,78.32-.19,152.3-4.49,230.55Z" fill="#fcfdfe"/><path d="M1362.88,1874.46c-3.82-203.9,103.72-446.1,194.61-613.38,98.43-181.16,199.07-315.91,200.08-317.24l2.79,2.09c-1,1.34-101.52,135.92-199.83,316.86-90.68,166.9-198,408.48-194.16,611.6Z" fill="#fcfdfe"/><path d="M1225.93,988.32c-16.11-216.14,17-446.7,27.93-522.47,2.08-14.49,3.45-24.06,3.39-25.92l3.49-.12c.07,2.08-1,9.64-3.43,26.54-10.88,75.67-44,305.95-27.9,521.71Z" fill="#fcfdfe"/><path d="M1303.68,1333.94c-72.94-186.21-454.25-351.31-458.09-353l1.37-3.2c3.85,1.65,386.5,167.33,460,354.89Z" fill="#fcfdfe"/></g></g><path d="M1123.73,1465.78C1127,1742,1260.21,1651,1383.07,1678.26c141.8,205.16,155.16,395.51-56.55,559.89l-235.9-35.3c-87.53-4.06-190.24-30.81-184.44-147.36,6.55-131.82,37.73-215.54-111.06-280.27S582.43,1592.36,642.68,1458c63.4-141.39-85.31-332,23.37-426.71C855.42,866.23,1120.36,1178.12,1123.73,1465.78Z" fill="url(#linear-gradient-2)"/><g clip-path="url(#clip-path-2)"><g style="mix-blend-mode:soft-light"><path d="M1182.3,1960.14a1808,1808,0,0,1-253.63-355.88c-70.4-129.5-124.07-266.09-159.5-406a1651.19,1651.19,0,0,1-42.63-242.91l3.55-.35a1647.24,1647.24,0,0,0,42.54,242.39C808,1337,861.54,1473.32,931.81,1602.56a1804,1804,0,0,0,253.12,355.17Z" fill="#fcfdfe"/><path d="M928.39,2111.87l-1.62-3.18c43.82-22.32,95.5-39.73,153.62-51.73a596.6,596.6,0,0,1,81.76-11.23l.24,3.56a594.23,594.23,0,0,0-81.28,11.16C1023.3,2072.39,971.92,2089.69,928.39,2111.87Z" fill="#fcfdfe"/><path d="M974.59,1683.08C852.78,1565.25,593.48,1576,590.88,1576.16l-.17-3.57c2.63-.11,263.44-11,386.37,107.93Z" fill="#fcfdfe"/><path d="M824.39,1375.55c-36.46-188,104.43-405.22,105.85-407.39l3,2c-1.42,2.16-141.51,218.21-105.33,404.75Z" fill="#fcfdfe"/></g></g><polygon points="3196.59 1812.15 3107.85 1812.15 2922.53 1276.09 2990.39 1226.99 3196.59 1812.15" fill="#97a6b7"/><polygon points="2552.05 2621.43 555.49 2447.03 555.49 1705.76 1118.96 1705.76 2549.36 2603.63 2552.05 2621.43" fill="url(#linear-gradient-5)"/><polygon points="1176.38 1226 795.31 1265.17 445.56 1758.95 1118.96 1758.95 1176.38 1226" fill="url(#linear-gradient-6)"/><polygon points="950.17 1684.88 1134.65 1734.47 1473.93 943.62 1352.53 794.37 950.17 1684.88" fill="#97a6b7"/><polygon points="3123.01 1857.15 3123.01 2412.21 2549.04 2621.43 2547.44 2622.06 1907.14 2572.31 1803.31 2603.63 1062.61 2525.33 1062.61 1691.83 1408.07 897.26 2171.98 1469.97 2924.54 1193.35 2926.58 1192.52 3123.01 1857.15" fill="url(#linear-gradient-7)"/><polygon points="1803.79 2603.63 1803.79 1731.87 1803.79 1643.12 1906.63 1759.65 1906.63 2572.31 1803.79 2603.63" fill="url(#linear-gradient-8)" style="mix-blend-mode:multiply"/><polygon points="2384 1205.1 2105.58 1225.52 2035.4 1719.95 2029.01 1764.91 1875.89 1784.06 1338.2 766.13 1392.7 789.01 2384 1205.1" fill="url(#linear-gradient-9)"/><polygon points="1359.14 807.21 950.17 1684.48 910.15 1684.48 1338.21 765.83 1359.14 807.21" fill="url(#linear-gradient-10)"/><polygon points="3123.01 1784.07 3123.01 2412.21 2548.51 2621.43 2548.51 1768.41 2924.02 1193.35 2926.32 1192.52 3123.01 1784.07" fill="url(#linear-gradient-11)" style="mix-blend-mode:multiply"/><polygon points="3222.45 1797.11 3198.94 1811.87 2979.07 1249.88 2676.32 1759.66 2029.01 1764.91 2035.4 1719.95 2092.81 1222.28 2384 1204.51 2987.79 1159.63 2987.93 1159.63 2989.14 1160.11 2990.8 1164.98 3222.45 1797.11" fill="url(#linear-gradient-12)"/><polygon points="1576.83 1879.53 1576.83 2452.77 1324.4 2435.86 1305.2 2432.74 1301.67 1879.53 1576.83 1879.53" fill="#97a6b7"/><polygon points="2427.94 2287.57 2027.21 2272.14 2027.21 1895.7 2427.94 1885.81 2427.94 2287.57" fill="#fff"/><polygon points="2208.07 2237.98 2059.12 2233.07 2059.12 1929.26 2208.07 1926.37 2208.07 2237.98" fill="url(#linear-gradient-13)"/><polygon points="2399.57 2243.82 2232.89 2238.8 2232.89 1925.85 2399.57 1922.75 2399.57 2243.82" fill="url(#linear-gradient-14)"/><polygon points="987.43 2254.52 615.78 2240.42 615.78 1894.93 988.66 1885.81 987.43 2254.52" fill="#fff"/><polygon points="784.97 2209.2 649.16 2204.71 649.28 1925.85 785.57 1923.19 784.97 2209.2" fill="url(#linear-gradient-15)"/><polygon points="957.31 2214.54 811.08 2209.95 811.79 1922.72 958.58 1919.86 957.31 2214.54" fill="url(#linear-gradient-16)"/><polygon points="3055.44 2191.83 2658.45 2259.1 2658.45 1876.29 3060.52 1878.55 3055.44 2191.83" fill="#fff"/><polygon points="2864.58 2187.97 2696.11 2213.45 2696.58 1911.2 2866.97 1909.41 2864.58 2187.97" fill="url(#linear-gradient-17)"/><polygon points="3030.53 2162.87 2890.12 2184.11 2892.77 1909.13 3034.48 1907.64 3030.53 2162.87" fill="url(#linear-gradient-18)"/><polygon points="1325.04 1879.53 1325.04 2435.86 1305.52 2432.74 1301.67 1879.53 1325.04 1879.53" fill="url(#linear-gradient-19)"/><polygon points="1576.83 2452.75 1576.83 2581.21 1340.06 2642.99 1312.88 2603.13 1214.01 2453.79 1316.49 2434.6 1576.83 2452.75" fill="url(#linear-gradient-20)"/><polygon points="1576.83 2452.75 1576.83 2581.21 1340.06 2642.99 1312.88 2603.13 1344.78 2541.84 1502.12 2475.59 1576.83 2452.75" fill="url(#linear-gradient-21)" style="mix-blend-mode:multiply"/><polygon points="1346.32 2593.28 1410.15 2579.69 1410.15 2532.5 1498.81 2520.83 1498.81 2475.59 1211.56 2452.75 1211.56 2494.19 1122.9 2504.88 1122.9 2548.06 1055.52 2560.49 1055.52 2606.07 1346.32 2642.99 1346.32 2593.28" fill="url(#linear-gradient-22)"/><polygon points="1346.32 2593.28 1055.52 2560.49 1055.52 2606.07 1346.32 2642.99 1346.32 2593.28" fill="#97a6b7"/><polygon points="1410.15 2532.5 1122.9 2504.88 1122.9 2548.06 1410.15 2579.69 1410.15 2532.5" fill="#97a6b7"/><polygon points="1211.56 2452.75 1211.56 2494.19 1498.81 2520.83 1498.81 2477.62 1211.56 2452.75" fill="#97a6b7"/><path d="M1339.22,1620.65V1389.94c0-47.49,37.63-84.91,85.12-84.91h36.54c47.5,0,87.58,37.42,87.58,84.91v230.71Z" fill="#fff"/><path d="M1460.88,1322.76h-36.54c-36,0-67.38,31.15-67.38,67.18v209.43h170.22V1389.94C1527.18,1353.91,1496.92,1322.76,1460.88,1322.76Z" fill="url(#linear-gradient-23)"/><polygon points="3222.45 1797.11 3198.94 1811.87 2979.07 1249.88 2676.32 1759.66 2029.01 1764.91 1875.89 1784.06 1338.2 766.13 1392.7 789.01 1395.43 794.36 1897.77 1741.22 2034.3 1719.95 2642.49 1719.95 2987.79 1160.8 2987.86 1160.69 2987.93 1160.8 2990.8 1165.27 3222.45 1797.11" opacity="0.3" fill="url(#linear-gradient-24)" style="mix-blend-mode:multiply"/><path d="M2718.47,1939.94s-140.16,51.79-109.07,181.66,36.59,204.49,34.76,217.49,54.82,18.48,54.82,18.48Z" fill="url(#linear-gradient-25)"/><path d="M2732.28,3170.67s3.77,23.06,3.29,31.27-91.55,12.4-92.47,6.25,15.05-15.92,26.3-19.37,44.14-12.66,44.14-12.66Z" fill="url(#linear-gradient-26)"/><path d="M2710.18,3147.68l2.9,28.67s10.58,7,19.9,1.6l4.66-31.21Z" fill="url(#linear-gradient-27)"/><path d="M2894.77,3208.05s3.76,23.06,3.28,31.27-91.55,12.4-92.46,6.25,15-15.92,26.29-19.37,44.15-12.66,44.15-12.66Z" fill="url(#linear-gradient-28)"/><path d="M2872.66,3185.06l2.91,28.67s10.57,7,19.9,1.6l4.66-31.21Z" fill="url(#linear-gradient-29)"/><path d="M2726.7,2399.14q-15.78,32-31.58,64c-8.46,121.79-12.67,254.22-10,395.85,2,105.38,7.64,205.2,15.73,298.89l42.82-2c20.64-41,45-103,47.24-179.62,2.34-79.91-21.88-90.52-20.35-167,2-99.16,43.58-125.62,65.73-244.9,8.47-45.61,14.18-105.19,7.4-177.47Z" fill="url(#linear-gradient-30)"/><path d="M2843.72,2386.94l-63.2,6.59c-37.92,66-48.5,134.67-41.85,165,9.41,43,34.32,56.75,32.95,99.9-1.36,42.7-26.51,53.78-42.47,104.11-11.05,34.84-8.14,66.88-1.85,129.53,12.66,126.21,43.13,164.81,17.61,206.18-7.26,11.76-20.33,25.76-45.93,36.45.62,7.74,1.24,15.51,1.9,23.16l42.82-2c20.64-41,45-103,47.24-179.62,2.34-79.91-21.88-90.52-20.35-167,2-99.17,43.58-125.62,65.73-244.9C2844.79,2518.8,2850.5,2459.22,2843.72,2386.94Z" opacity="0.3" fill="url(#linear-gradient-31)" style="mix-blend-mode:multiply"/><path d="M2783.33,2437.57c19.76,107.75,37.22,223.07,50.84,345.37,16.44,147.68,25.22,286.89,28.67,416.15l47,1.33c61.73-122.12,65.5-204.91,56.6-258.82-3.43-20.77-12.74-61.5-14.87-122.37-1.48-42.44,1.23-74.73,4.61-113.55,7.41-85.11,16.41-103.69,17.7-168.79,1.22-61.1,1.47-92-16-110.06C2911.94,2379.29,2792.4,2433.36,2783.33,2437.57Z" fill="url(#linear-gradient-32)"/><path d="M2683.13,2485c-15-24.91,3.84-48.93,8.14-96.11,4.86-53.48-15.74-62.38-36.12-151-13.54-58.94-26.55-115.53-11-181.76,7.44-31.75,20.06-85.59,64.62-111.59,23-13.42,54.39-12.08,116.25-8.84,76.48,4,114.73,6,143.25,21,4.17,2.2,91,49.4,96.92,126.33,6.08,78.3-79.2,88.83-90.57,193.25-5.1,46.87,4,119,9.9,165.73,5.67,44.89,9.57,56.39.7,70-21.35,32.77-86.73,23.43-217.49,4.76C2716.41,2509.44,2694.33,2503.6,2683.13,2485Z" fill="url(#linear-gradient-33)"/><path d="M2882.08,2259.5c5.53,20.35,25.42,35.55,39.26,85.05,3,10.69,24.27,86.8-3.34,105.54-15.95,10.82-30.26-9.68-69-12.36-67.07-4.64-99,51.73-142.84,36.34-7.6-2.68-17.63-8.37-27.65-21.46-2,11.8-1.66,22,4.59,32.41,11.2,18.58,33.28,24.42,84.57,31.75,130.76,18.67,196.14,28,217.49-4.76,8.87-13.59,5-25.09-.7-70-5.9-46.77-15-118.86-9.9-165.73,11.37-104.42,96.65-115,90.57-193.25-1.63-20.93-9.33-39.57-19.62-55.79C2937.36,2071,2864.7,2195.55,2882.08,2259.5Z" opacity="0.3" fill="url(#linear-gradient-34)" style="mix-blend-mode:multiply"/><path d="M3018.71,2413.52l-21.64,13.82c-3.88-4.49-12.88-13.54-26.93-16.63-15.83-3.48-34,1.51-34.42,6.56-.33,4.05,10.73,8.13,12.44,8.76,13.81,5.1,24.05.87,29.64,6.42,2,2,4.43,5.61,10.09,9a30.49,30.49,0,0,0,3.86,2c9.22,3.58,25-12.46,26.39-13.87Z" fill="url(#linear-gradient-35)"/><path d="M2954.77,2129.66c-15.65-37.49-26.5-94.91-1.77-180.17,162.94,64.21,246,216.42,213.59,337.07-26.74,99.47-124.06,147.92-145.77,158.11l-15.15-34.49c25.16-28,53.51-69.43,49.5-116.7C3049.61,2228,2986.47,2205.58,2954.77,2129.66Z" fill="url(#linear-gradient-36)"/><path d="M2829,1858.57s1.29,28.5,10.14,49.84c8,19.3,50,31.42,58.57,35.73s-16,16.89-40.57,19.37-94.85-3.12-107.52-12.44,10.18-8.63,27.74-15.07,27.71-40.79,24.61-56.37S2829,1858.57,2829,1858.57Z" fill="url(#linear-gradient-37)"/><path d="M2790.08,1848.23c-12.76-12.54-14.54-14-15.94-18.34-5.57-17.4,7.92-41.23,25.62-47.09.92-.31,12.79-4.11,17.32,1,3.85,4.38-1.81,10.42.88,18.85,2.52,7.89,9.36,8.48,22,18.83,10.45,8.52,16.94,13.82,18.43,21.27,3.09,15.36-15.51,37.63-32,37C2820.54,1879.6,2818.93,1876.57,2790.08,1848.23Z" fill="url(#linear-gradient-38)"/><path d="M2824.85,1882.19s-13.57,15.36-34.24,10.28c-18.51-4.55-13.79-47-.24-53.81,4.51-2.26,12.72-2.07,18.9.9,3.65,1.76,4.66,3.59,10.67,6.34,5.55,2.54,7.31,2.19,8.8,4,1.87,2.24,2.67,7.06-3.18,18.68,4.22-3,8.75-3.61,11.54-1.63a6.52,6.52,0,0,1,2.06,2.87C2840.92,1875.06,2835.45,1880.41,2824.85,1882.19Z" fill="url(#linear-gradient-39)"/><path d="M1929.29,2226.49s-11.4-23.48-19.23-26.61-35.32-30.19-33.76-17.66,20.35,20.79,16.32,28,13,27,27.06,30S1929.29,2226.49,1929.29,2226.49Z" fill="url(#linear-gradient-40)"/><path d="M2288.31,3160.91s2,16.14.67,21.55-48.29,9.31-64.22,7.43,9.49-18.15,19.64-21.2S2288.31,3160.91,2288.31,3160.91Z" fill="url(#linear-gradient-41)"/><path d="M2264.69,3134l4.95,32.38s12.61,5.66,18.67.06l.67-33.89Z" fill="url(#linear-gradient-42)"/><path d="M2529.2,3132.54s-9.95,7.39-7.3,16.24,25.89,44.3,42.44,54.36,11.37-10.9,6.55-24-17.13-41.82-21.93-46.64S2529.2,3132.54,2529.2,3132.54Z" fill="url(#linear-gradient-43)"/><path d="M2511.29,3097c4.82,13.42,9.45,24.44,13.07,32.58,8,18,12.39,24.75,17.34,30.61,4.33,5.1,14.57,16,17.32,14.17s-4.7-15.07-19.13-53.82c-2.1-5.62-8.72-23.54-8.72-23.54h-19.88Z" fill="url(#linear-gradient-44)"/><path d="M2166.43,2536.42a838,838,0,0,0-1.81,149.57c6.42,82.75,23,135.12,43.72,223.36,12.69,53.92,29.77,133.29,45.24,232.55a43.7,43.7,0,0,0,27.73,5.44A42.22,42.22,0,0,0,2298,3141c40.57-124,28.59-200.82,9-248.69-8.35-20.4-18.47-36.5-23.88-67.87-7.16-41.49,1.69-64.69,14.31-160.81,9-68.52,7.44-79.11,1.46-89.38C2275,2533.18,2201.78,2534,2166.43,2536.42Z" fill="url(#linear-gradient-45)"/><path d="M2306.08,2550.84c24.86,128.36,49.26,195.78,67.72,233.91a642.35,642.35,0,0,1,34.1,83.24c12.71,38.51,18,66.83,20.72,79.3,8.57,39.34,29.75,96.8,86.74,172.15.71.42,10.43,5.91,19.72,1a19.14,19.14,0,0,0,8-8.27c-7.45-72-16-132.59-23.43-179.31-1.56-9.8-8.42-52.67-19.18-109.32-4.2-22.17-10.37-54.65-17.76-88-9.2-41.54-23.31-98.06-45.05-165.78Z" fill="url(#linear-gradient-46)"/><path d="M1911.06,2237q8.42-9.87,16.84-19.73c2.67,2,41.46,30.64,87.82,13.91,31.92-11.51,47.15-41.15,56.91-60.08,29.31-56.83,2.22-91.8,36.64-132.43,9.55-11.28,29.32-26.08,43.81-24.41,34.54,4,67.64,101.58,46.3,184.94-4.3,16.82-28,109.45-108.06,130.23C2026.68,2346.23,1950.6,2309.6,1911.06,2237Z" fill="url(#linear-gradient-47)"/><path d="M2289.18,2043.76c-14.49-13.39-42.22-28.84-56.12-64.73-4.19-10.81-19-49.1,2.86-78.38,13-17.39,37.1-29.19,58.35-25,18.17,3.57,21,16.22,51.88,41.68,12,9.91,31.32,25.84,52.82,34.7,36.82,15.18,59,.9,95.92,2.52,45.41,2,98.17,27.35,123.59,64.21,45.12,65.42-20.24,131.78,29.18,208.42,16.19,25.11,24.18,19.48,62.53,68.09s57.6,73,54.19,102.82c-4.75,41.38-49.32,80.92-91.3,83.6-41,2.63-67.07-29.63-87.94-15.52-14.86,10-6.37,29.58-22.15,53.05-20.34,30.27-60.32,36.3-66.78,37.27-59.94,9-140.75-61.24-175.08-144.51C2259.24,2261.82,2368,2116.59,2289.18,2043.76Z" fill="url(#linear-gradient-48)"/><path d="M2307,2892.32c-8.35-20.4-18.47-36.5-23.88-67.87-7.16-41.49,1.69-64.69,14.31-160.81,9-68.52,7.44-79.11,1.46-89.38-13-22.32-40.56-32.23-68.67-36.28.37,1.45.75,2.89,1.06,4.29,14.75,67.37-41.56,108.48-16.16,182.54,12.52,36.52,32.5,44.88,37.16,87.24,4.36,39.67-11.46,47.94-8.08,84,5,53.91,43.34,66.95,53.31,108.24,6.47,26.82,1,66-46.27,122.82.79,4.89,1.57,9.8,2.35,14.79a43.7,43.7,0,0,0,27.73,5.44A42.22,42.22,0,0,0,2298,3141C2338.55,3017,2326.57,2940.19,2307,2892.32Z" opacity="0.3" fill="url(#linear-gradient-49)" style="mix-blend-mode:multiply"/><path d="M2158.93,2111.32c-53.55,55.83-34.23,146-70.55,155.75-11.1,3-11.68-5.77-39.83-10.79-41.16-7.35-57.88,8.16-86.94,2.27-12-2.44-28.15-9-45.67-27.25-1.63,1.9-3.25,3.81-4.88,5.72,39.54,72.58,115.62,109.21,180.26,92.43,80-20.78,103.76-113.41,108.06-130.23,10-39.11,8-81.36-.44-115.61A126.65,126.65,0,0,0,2158.93,2111.32Z" opacity="0.3" fill="url(#linear-gradient-50)" style="mix-blend-mode:multiply"/><path d="M2114.53,2033.4c3.72-5.78,15.55-21.79,65.74-33.59,18-4.24,46.94-10.63,83.88-9.27a286.39,286.39,0,0,1,47.64,5.9c45.83,9.93,137.19,44.83,140.37,92.36,2.28,33.94-43,36.12-68.59,96.22-18.65,43.78-18.53,98.47,1.82,141,16.33,34.14,45.23,59.77,67.17,79.24,32.92,29.2,50,33.69,61,59.85,12,28.49-.09,42.38,14.83,61.88,16,20.95,34.8,11.21,62,32.39,27.83,21.7,17.92,39.55,43.25,63.53,36.8,34.83,85.58,23.52,87.85,39.19,1.95,13.48-32.72,31.78-62.17,39.2-58.33,14.69-109.21-10-124.34-17.57-41.89-21-34.66-34.67-66.59-50.72-53.48-26.86-90,3-211.83,6.11-66,1.67-99.31,2-117.59-20.27-16.68-20.38-7.91-42.74,2.1-139.1v0c3.22-32.18,10-99.56,10-137.95,0-22.69-7.85-59.77-23.59-133.92-.92-4.38-9.44-44.44-16.33-98C2104.93,2061.72,2105.83,2046.92,2114.53,2033.4Z" fill="url(#linear-gradient-51)"/><g opacity="0.3" style="mix-blend-mode:multiply"><path d="M2633.61,2622.92c-25.33-24-15.42-41.83-43.25-63.53-27.17-21.18-45.94-11.44-62-32.39-14.92-19.5-2.82-33.39-14.83-61.88-11-26.16-28.08-30.64-61-59.85-21.94-19.47-50.84-45.1-67.17-79.24-28.35-59.25-8.53-122.51-1.82-141,21.57-59.48,65.11-90.83,80.89-101.1-1.52-1.64-75.24,64-77.15,62-104,14.29-92.65,6.87-100.15,24.66-17.33,41.11,10.11,56.22,10.82,174.8.33,56.68-5.78,79.06,12.61,102.72,21,27.05,45.27,18.68,75.69,54.06,23.37,27.18,19.62,44.41,41.44,55.86,23.47,12.31,38.41-2,64.88,3.61,44.21,9.43,53.66,60.41,82.89,88.3,22.11,21.09,63,35.83,143.57,20,1.86-2.72,2.76-5.37,2.4-7.85C2719.19,2646.44,2670.41,2657.75,2633.61,2622.92Z" fill="url(#linear-gradient-52)"/></g><path d="M2278.05,1932.18s5.24,41.91,20.71,51.52,40.48,22.14,43.23,25.54-95.83,14-144.69-10.65h0c16.1-3.36,20.48-4.59,20.48-4.59a90.59,90.59,0,0,0,20.69-8.19,70.33,70.33,0,0,0,22.75-21l-.18-23.21Z" fill="url(#linear-gradient-53)"/><path d="M2283.55,1943.07s-.3,17.61-17,22.1c-15,4-29.48-31.74-22.5-41.89,2.34-3.38,8.49-6.93,14.05-7.24,3.92-.21,17.53,3.71,20.47,16.75,2.4-3,5.6-4,7.31-3,2.17,1.3,1.43,5.67,1.26,6.66A12.28,12.28,0,0,1,2283.55,1943.07Z" fill="url(#linear-gradient-54)"/><path d="M2385.44,2663.53a3.86,3.86,0,0,1-3.86,3.86h0a3.86,3.86,0,0,1-3.86-3.86v-19.29a3.86,3.86,0,0,1,3.86-3.86h0a3.86,3.86,0,0,1,3.86,3.86Z" fill="url(#linear-gradient-55)"/><path d="M2493.48,2663.53a3.86,3.86,0,0,1-3.86,3.86h0a3.86,3.86,0,0,1-3.86-3.86v-19.29a3.86,3.86,0,0,1,3.86-3.86h0a3.86,3.86,0,0,1,3.86,3.86Z" fill="url(#linear-gradient-56)"/><path d="M2508.91,2636.52a7.72,7.72,0,0,1-7.72,7.72H2370a7.72,7.72,0,0,1-7.71-7.72h0a7.72,7.72,0,0,1,7.71-7.72h131.19a7.72,7.72,0,0,1,7.72,7.72Z" fill="url(#linear-gradient-57)"/><rect x="2308.27" y="2439.73" width="19.29" height="270.1" rx="8.67" fill="url(#linear-gradient-58)"/><rect x="2543.64" y="2439.73" width="19.29" height="270.1" rx="8.67" fill="url(#linear-gradient-59)"/><path d="M2577.59,2434c0,9.57-9.55,17.36-21.34,17.36H2316.17c-11.78,0-21.34-7.79-21.34-17.36h0c0-9.58,9.56-17.37,21.34-17.37h240.08c11.79,0,21.34,7.79,21.34,17.37Z" fill="url(#linear-gradient-60)"/><rect x="2549.01" y="3169.01" width="31.59" height="55.28" rx="15.51" fill="url(#linear-gradient-61)"/><rect x="2551.36" y="3145.84" width="27.01" height="34.73" rx="12.67" fill="url(#linear-gradient-62)"/><path d="M2324.45,3210a16,16,0,0,1-16,16h0a16,16,0,0,1-16-16v-24a16,16,0,0,1,16-16h0a16,16,0,0,1,16,16Z" fill="url(#linear-gradient-63)"/><rect x="2292.83" y="3145.84" width="27.01" height="34.73" rx="12.67" fill="url(#linear-gradient-64)"/><rect x="2238.81" y="2659.67" width="393.57" height="505.47" rx="32.01" fill="url(#linear-gradient-65)"/><path d="M2331.42,2747.18v333.45c0,11.2-8.21,20.7-18.29,24a27.61,27.61,0,0,1-8.48,1.31c-.46,0-1.12,0-1.58,0a27.47,27.47,0,0,1-17.42-7.38c-4.59-4.59-8.25-10.94-8.25-17.93V2747.18c0-13.55,11.33-24.62,24.72-25.31.45,0,1.24,0,1.69,0a26,26,0,0,1,8.18,1.31c3.79,1.23,8.22,3.36,11,6.11C2327.55,2733.85,2331.42,2740.2,2331.42,2747.18Z" opacity="0.6" fill="url(#linear-gradient-66)" style="mix-blend-mode:multiply"/><path d="M2331.42,2747.18v333.45c0,11.2-8.21,20.7-18.29,24a35.49,35.49,0,0,1-9.63,1.31c-.45,0-2.95,0-2.95,0V2721.87s2,0,2.48,0a28.5,28.5,0,0,1,8.57,1.31c3.79,1.23,8.42,3.36,11.16,6.11C2327.35,2733.85,2331.42,2740.2,2331.42,2747.18Z" opacity="0.6" fill="url(#linear-gradient-67)" style="mix-blend-mode:multiply"/><path d="M2420.17,2747.18v333.45c0,11.2-8.57,20.7-18.66,24a28.68,28.68,0,0,1-8.66,1.31c-.45,0-1.2,0-1.66,0a26.68,26.68,0,0,1-17.11-7.38c-4.59-4.59-7.93-10.94-7.93-17.93V2747.18a25.64,25.64,0,0,1,24.36-25.31c.45,0,1.06,0,1.51,0a25.4,25.4,0,0,1,8.09,1.31c3.79,1.23,8.54,3.36,11.28,6.11C2416,2733.85,2420.17,2740.2,2420.17,2747.18Z" opacity="0.6" fill="url(#linear-gradient-68)" style="mix-blend-mode:multiply"/><path d="M2420.17,2747.18v333.45c0,11.2-8.57,20.7-18.66,24a34.06,34.06,0,0,1-9.44,1.31c-.45,0-2.77,0-2.77,0V2721.87s1.66,0,2.11,0a27.35,27.35,0,0,1,8.4,1.31c3.79,1.23,8.68,3.36,11.43,6.11C2415.83,2733.85,2420.17,2740.2,2420.17,2747.18Z" opacity="0.6" fill="url(#linear-gradient-69)" style="mix-blend-mode:multiply"/><path d="M2508.91,2747.18v333.45c0,11.2-8.92,20.7-19,24a30,30,0,0,1-8.84,1.31c-.45,0-1.29,0-1.75,0a25.88,25.88,0,0,1-16.8-7.38,25.51,25.51,0,0,1-7.62-17.93V2747.18a25.33,25.33,0,0,1,24-25.31c.45,0,.88,0,1.33,0a24.89,24.89,0,0,1,8,1.31c3.79,1.23,8.85,3.36,11.59,6.11C2504.41,2733.85,2508.91,2740.2,2508.91,2747.18Z" opacity="0.6" fill="url(#linear-gradient-70)" style="mix-blend-mode:multiply"/><path d="M2508.91,2747.18v333.45c0,11.2-8.92,20.7-19,24-2.51.86-8.39,1.31-11.19,1.31l-4.53,0V2721.87l3.69,0a32.59,32.59,0,0,1,9.18,1.31c3.79,1.23,9.44,3.36,12.19,6.11C2503.82,2733.85,2508.91,2740.2,2508.91,2747.18Z" opacity="0.6" fill="url(#linear-gradient-71)" style="mix-blend-mode:multiply"/><path d="M2593.8,2747.18v333.45a25.39,25.39,0,0,1-17.44,24,24.93,24.93,0,0,1-8.05,1.31c-.46,0-.91,0-1.36,0a24.44,24.44,0,0,1-16.24-7.38,25,25,0,0,1-7.07-17.93V2747.18a25,25,0,0,1,23.65-25.31c.45,0,.69,0,1.15,0a24.35,24.35,0,0,1,7.91,1.31,25.33,25.33,0,0,1,17.45,24Z" opacity="0.6" fill="url(#linear-gradient-72)" style="mix-blend-mode:multiply"/><path d="M2593.8,2747.18v333.45a25.51,25.51,0,0,1-25.56,25.34c-.45,0-1.45,0-1.45,0V2721.87s.95,0,1.4,0a25.14,25.14,0,0,1,8,1.31,25.39,25.39,0,0,1,17.57,24Z" opacity="0.6" fill="url(#linear-gradient-73)" style="mix-blend-mode:multiply"/><path d="M2383.49,2021.16c31.29,15.5,129.68,62,151.15,196.18s-93,203.93-93,203.93l-26.84-17.89s28.63-209.3-73.34-268.33S2383.49,2021.16,2383.49,2021.16Z" fill="url(#linear-gradient-74)"/><path d="M2421.13,2407.61c-6.35,1.14-9.92,6.51-24.23-.65s-50.09,1.79-50.09,1.79,17.89,16.1,37.56,12.52,37.93,6.14,43.12,7.54,7-12.31,7-12.31Z" fill="url(#linear-gradient-75)"/><path d="M2706.52,2505.36s-8.48-8.34-7.62-16.25,15.53,14.53,20.56,19,6.33,4.46,4.46,16,.86,23.73.86,23.73c4.17.14-15.81,1.87-15.81,1.87s-.58-9.35-2.73-12.08-10.21-4.75-11.36-16.25S2706.52,2505.36,2706.52,2505.36Z" fill="url(#linear-gradient-76)"/><path d="M2884.75,2497.51s-51,17.49-81.46,86.5-75.34-43.25-75.34-43.25l-25.31,3.57s10.16,113.68,86.46,116c66.88,2,103.14-55.6,120-139Z" fill="url(#linear-gradient-77)"/><path d="M3081.85,2916.21s4.18-9,9-8.59,10,.83,21.29,8.29,16.77,8.61,16.23,13.4S3092.09,2933.14,3081.85,2916.21Z" fill="url(#linear-gradient-78)"/><path d="M3068.48,2922c.9-.29,10.55-6,16-9.31a5.85,5.85,0,0,1,7,.74h0a7.17,7.17,0,0,1,.62,9.85c-4.11,4.93-10.32,12.11-14.79,16.08Z" fill="url(#linear-gradient-79)"/><path d="M2990.06,3158.56a10.23,10.23,0,0,0,.09,1.27c.27,2.8.72,9.25-4.47,14.21-6.35,6.07-22.39,7.47-41.67,8.43s-4-11.47-1.23-12.88,40.42-18,40.42-18Z" fill="url(#linear-gradient-80)"/><path d="M2975.54,3141.14l3.16,22.34s4.54,2.68,7.91-3.6l8.46-15.77Z" fill="url(#linear-gradient-81)"/><path d="M2899.76,2706.06c-26.38-1.63-37.34,28-52.25,53.86-29.35,51-72.72,160.19-31.22,215.72,34.94,46.74,136.84,24.19,166.74,14.46,62.74-20.42,60.18-26.79,104-54.73-7.69-6.11-10.08-13.65-16.48-20.28-15.68-1.52-45.17-2-58.71-2.26-20-.39-55.75,1.22-66.6,2.07-17.2,1.34-50,9.92-55.73,2.28-12.64-16.88,23.48-102.75,24-130.78C2913.8,2774.65,2923.85,2707.56,2899.76,2706.06Z" fill="url(#linear-gradient-82)"/><path d="M2848,2758.67c-6.89,10.67-13.75,28.57-19.3,40.8,5.51,3.72,13.22,8.07,15.19,14.29,9.06,28.54-10.44,54.29-8.5,90.14.5,9.17,4.24,42.15,21.81,50.25,21,9.67,61.57-4.6,89.28-1.1,14.38,1.81,28.09,12,42.81,10.35,23.24-2.61,38.1-19.53,61.65-22.9,6.22-.89,17.16,1.36,23.7,4,4-2.82,7.54-5.77,11.28-8.78-5.21-6.87-9.65-13.77-15.32-20.63-15.76-1.51-45.2-2-58.75-2.26-20-.4-55.76,1.27-66.6,2.07-17.16,1.26-50.07,10.07-55.73,2.29-12.5-17.2,23.24-102.2,24.15-131,.38-12.08,9.38-76.71-13.67-80.64C2874.73,2701.23,2859.67,2740.57,2848,2758.67Z" opacity="0.3" fill="url(#linear-gradient-83)" style="mix-blend-mode:multiply"/><path d="M2885.83,2777.49c-2.78,47.07,26.29,112.08,22.68,166.38-.41,6.18,1.84,32.2,4.31,39.53,8,23.75,55.27,164.21,56.47,165.56,8.8-1.82,17.94-2.93,26.88-4.86,11.72-21.33,21.16-51,26.55-73.65,7.26-30.48-7.48-66.21-10.91-86.5-4-23.37-3.63-61.5-6-69.47-17.66-59.23,4.32-81.74-4.06-130.2-4.34-25.11-20.36-37.37-38.62-52.42C2937.21,2758,2907.91,2748.56,2885.83,2777.49Z" fill="url(#linear-gradient-84)"/><path d="M2846.28,2757.46c5.32,22.5,32.42,33.41,60.32,44.63,18.66,7.5,76.33,30.71,109.87,4.63,14.12-11,15.67-24.25,25.74-73,7.3-35.31,13.32-61.42,17.95-81.32,11.61-49.92,14.49-60.8,6.78-80-16.63-41.45-58.43-61-72.58-66.85-1.51-.62-2.76-1.08-3.61-1.42-36-13.67-102.72-20.68-129.56,7.33-29.15,30.46,18.93,70.72-2.05,161.89-6.32,27.54-13.32,44.47-14.65,61.54A71.69,71.69,0,0,0,2846.28,2757.46Z" fill="url(#linear-gradient-85)"/><path d="M2893.7,2419.77c-1.53-8-7.46-8.27-8.73-15.72-1.59-9.34,5.76-20.53,14.84-25.32,8.9-4.69,12.91.2,32.31,0,20.83-.2,24.07-5.92,41-3.49a60.49,60.49,0,0,1,21.82,7c7.29,4.05,21.74,12.11,23.58,27.06,2,16.35-12.57,28.55-14,29.68,5.51,19,3.16,27-.87,30.56,0,0-4.29,3.76-26.19,3.49h0s-6.19,7.69-9.79,10.25c-4.09,2.92-12.05,4.36-29.21-3.8a115.57,115.57,0,0,0-2.27-15.13c-2.55-11.63-3.82-17.45-7-18.55-8.13-2.78-19,25.64-30,23.55-7.07-1.35-12.57-15-11.65-26S2895.45,2428.9,2893.7,2419.77Z" fill="url(#linear-gradient-86)"/><path d="M2922.77,2485.51c1.61,7.94-3.38,14.75-10.75,15-8.6.34-18.65,1.07-22.88,2.67-7.5,2.84,24.19,4.56,57.27,11a370.61,370.61,0,0,0,53.07,6.5c3.11.14,4-3.37,1.21-4.77-10.07-5-25.93-12.47-39.06-16.47-15.49-4.72-28.75-40.44-28.75-40.44l-13.4,10.17Z" fill="url(#linear-gradient-87)"/><path d="M2952.6,2475.45s-17.53,19.91-44.29,13.38c-24-5.85-17.94-60.84-.42-69.65,5.84-2.93,16.47-2.71,24.46,1.13,4.73,2.27,6.05,4.63,13.83,8.18,7.19,3.28,9.47,2.82,11.4,5.14,2.42,2.89,3.47,9.12-4.08,24.18,5.45-3.87,11.32-4.69,14.93-2.14a8.41,8.41,0,0,1,2.67,3.71C2973.4,2466.19,2966.33,2473.12,2952.6,2475.45Z" fill="url(#linear-gradient-88)"/><path d="M2846.28,2757.46c5.32,22.5,32.42,33.41,60.32,44.63,18.66,7.5,76.33,30.71,109.87,4.63,14.12-11,15.67-24.25,25.74-73,7.3-35.31,13.32-61.42,17.95-81.32l-38.88-77.55c.39,2,13.76,70.58-17.35,80.63-31.56,10.2-54.59,11.05-59.17,49.72-4.43,37.4,5.62,94.57-100.27,29.7A71.69,71.69,0,0,0,2846.28,2757.46Z" fill="url(#linear-gradient-89)"/><path d="M2995.06,2790.79a35.08,35.08,0,0,1-11.48,14.17c-13.45,9.47-33.77,8.16-36.26,1.9-2.24-5.65,10-15.53,15.52-19.25,11.93-8.1,24.41-9.32,31.11-9.43Z" fill="url(#linear-gradient-90)"/><path d="M3039.07,2533.38s173.7,172.17,76.31,225.85-124.22,40.64-124.22,40.64l-4.6-21.69s114-49.63,81.92-84.9S2939,2602,3039.07,2533.38Z" fill="url(#linear-gradient-91)"/><path d="M1007.94,3111.08s72.38,32.9,73.56,38.15-46.55-1.76-66-1-35.52-5-33.76-13.25,8.59-29,8.59-29Z" fill="url(#linear-gradient-92)"/><path d="M1010.58,3084.38l-4.4,32.59s-11.46,4.08-19.16-.75l-3.28-35.74Z" fill="url(#linear-gradient-93)"/><path d="M669.69,3085.16l-8.42,13.52a16.12,16.12,0,0,0-1.92,12.63c2.94,11.24,8.82,33.15,11.39,38.86,3.49,7.78,50.33,12.4,50.33,12.4s4.18-5.88-5.55-13-16-8.21-19.41-18.69-5.72-40.11-5.72-40.11Z" fill="url(#linear-gradient-94)"/><path d="M704.74,3050.81c-3.08,2.45-18.12,48.12-18.12,48.12s-4.87,6.22-14.12-3-4.19-4.12-4.19-4.12l1.74-44.91Z" fill="url(#linear-gradient-95)"/><path d="M1050.41,2429.61c3.82,97.22,4,202.84-1.62,315.68-6.3,127.06-19,244.5-34.9,350.95-5.93.19-12.16.22-18.67,0q-6.6-.18-12.77-.62a806.93,806.93,0,0,1-26.82-85.78,825.62,825.62,0,0,1-18.73-100.43c-13.94-110.11,2.4-119.72-8.92-201.32-10-72.28-24.26-75.1-41-177.71-18.15-111.34-4.64-128,1.93-134.07C916.89,2370.66,982.59,2388.15,1050.41,2429.61Z" fill="url(#linear-gradient-96)"/><path d="M888.92,2396.35c26.68-24.5,87.68-9.67,152.11,27.72-74.12,80.09-82.2,132-73.31,165.75,10,38.09,40.57,49.07,40.46,90.72-.15,51.2-46.35,64.76-45.37,118.93.65,35.82,21,35.45,25.75,79.69,5.67,52.35-20.85,70.39-12.26,109.12,3.69,16.66,14.24,38.44,44.29,60.87-2.17,15.9-4.39,31.65-6.7,47.09-5.93.19-12.16.22-18.67,0q-6.6-.18-12.77-.62a807.39,807.39,0,0,1-26.82-85.77,826.11,826.11,0,0,1-18.73-100.44c-13.94-110.11,2.4-119.72-8.92-201.32-10-72.28-24.26-75.1-41-177.71C868.85,2419.08,882.35,2402.38,888.92,2396.35Z" opacity="0.3" fill="url(#linear-gradient-97)" style="mix-blend-mode:multiply"/><path d="M1004.5,2428A2182.88,2182.88,0,0,0,705.23,3068.5a39,39,0,0,1-21.36,3.32,39.77,39.77,0,0,1-24.2-13.08,628.5,628.5,0,0,1-5.55-155c2.19-24.67,6.07-65.77,21.8-116.51,17.62-56.83,29.73-60,52.72-120.15,23.86-62.41,18.08-78,40.93-156.09a1029.15,1029.15,0,0,1,51-136.94Z" fill="url(#linear-gradient-98)"/><path d="M1296.19,2502.7c-12.27,19.09-93.45,45.11-129.12,9.68-50.83-50.49-61.91-69.26-65.71-137.53-.82-14.66-.3-29-3.27-29.43-7.48-1.1-26.67,87.54-41.73,162.68-12.11,4.43-30.47,9.14-51.45,5.7-34.34-5.62-38.43-27-76.84-40.87-22.4-8.11-44.36-8.13-88.27-8.17-49.57,0-50.94,6.07-60.49,1.63a48.76,48.76,0,0,1-4.39-2.75c-35.3-25.34,65.69-218,36.61-395.71-3.23-19.75-8.18-40,2.85-59.81,28.51-51.1,141.19-58.3,211-24.67,19.13,9.21,51.18,29.38,79.8,50.63,11.44,8.49,23.33,18,35.74,28.84,30.1,26.29,51,44.59,68.32,70,69.61,102.42-10.84,187.79,52.31,318.77C1283.27,2496.72,1309.05,2482.71,1296.19,2502.7Z" fill="url(#linear-gradient-99)"/><path d="M657.26,2382.28c-27.79-13.63-87.8-48.52-106.25-112.8-30.72-107,78.53-209.08,134.93-247.27,64.66-43.79,129.64-50.86,169.13-55.16,49-5.33,78.89-8.58,101.35,9.81,58.08,47.57,23.17,204.53-34.33,220.69-18.82,5.29-26-8.48-65.39-18-12.85-3.09-108.71-26.19-158.57,24.52-34.89,35.49-39.35,99.1-14.71,158.57Z" fill="url(#linear-gradient-100)"/><path d="M1126.1,2073.93l0,0c-4.44-8.27-8.16-16-10.93-22.1a.43.43,0,0,0,0-.05c-2.63-16.94,4-36.21,11.41-48.4C1136.89,1986.26,1112,1965,1112,1965s-18.1,20.64-37.6,31.29c-8.2,4.5-21,3.12-33.3.45l0-.2H1041c-1.43,0-20,1.66-22.1,19.59-.63,5,.07,11.34,2.78,19.31a324,324,0,0,0,31.5,65.94s58-5.71,71.19-18.8c3.88-.51,5.6-2.87,1.79-8.62C1126.13,2074,1126.1,2074,1126.1,2073.93Z" fill="url(#linear-gradient-101)"/><path d="M1150.15,1954.41c7.13-9.5,7.54-26.05-.7-36.5-7.09-9-18.23-10.26-24.9-11-19.33-2.2-43.7,5.91-52.15,23.71-5,10.55,5.89,32.43,7.6,36.36,1.94,4.45,5.43,6,8.67,9.33,4.49,4.67,11.52,12.08,23,24.47a80.46,80.46,0,0,1,4.37-13.12,70.8,70.8,0,0,1,9.16-15.42C1135.23,1959.91,1143.4,1963.4,1150.15,1954.41Z" fill="url(#linear-gradient-102)"/><path d="M1095.31,1990.34s12.73,20.82,38,19.14c22.65-1.51,25.88-52.3,11.4-63.06-4.83-3.59-14.5-5.06-22.35-2.85-4.64,1.31-6.21,3.24-13.83,5.23-7,1.84-9,1.06-11.14,2.85-2.65,2.24-4.59,7.72-.13,22.56-4.33-4.37-9.52-6-13.19-4.3a7.72,7.72,0,0,0-3,2.94C1077.92,1978.66,1083.23,1986.06,1095.31,1990.34Z" fill="url(#linear-gradient-103)"/><path d="M1096.38,1948.61c1.09.82-2.24,4.89-2.48,10.66-.46,11.2,10.89,24.62,22.45,25.74,6.83.66,8.71-3.46,20-4.67a51.9,51.9,0,0,1,16.48.92c3.57,12.27.25,24.52-7.95,30.21-8.82,6.13-20.11,2.44-24.83.9-3.16-1-13.28-4.32-18.58-13.59-5.53-9.66-.13-15.49-6.46-22-3.19-3.29-7.38-4.72-11.47-11.09a31.46,31.46,0,0,1-2.3-4.3C1087.07,1955.17,1094.8,1947.44,1096.38,1948.61Z" fill="url(#linear-gradient-104)"/><path d="M1144.62,1985.83s-4.89,2.56-13.34,2.1c-.41,0-.86.1-.92.31-.19.8,5.24,4.39,10.23,3,3.55-1,6.3-4.37,5.82-5.22C1146.21,1985.64,1145.41,1985.68,1144.62,1985.83Z" fill="url(#linear-gradient-105)"/><path d="M1054.73,2119.92,1028.2,2301l-41.92,26.67-10.36-45.12s56.15-131.35,58.92-170.12C1034.84,2112.45,1055.49,2114.72,1054.73,2119.92Z" fill="url(#linear-gradient-106)"/><polygon points="1042.06 2082.36 1043.83 2083.12 1078.38 2097.95 1055.03 2119.31 1034.84 2112.45 1042.06 2082.36" fill="url(#linear-gradient-107)"/><path d="M1777.31,2468.12v0c-.12-.8-.28-1.61-.47-2.41,0-.21-.11-.43-.17-.64-.17-.63-.37-1.26-.59-1.88-.08-.23-.16-.47-.25-.7a24.45,24.45,0,0,0-1.07-2.42l-23.69-46.31a25.86,25.86,0,0,0-19.54-13.9l-511.1-66.37C1202.5,2255,1150,2186,1078,2145.32l-.24-.14q-2.74-1.54-5.55-3l-.6-.33c-1.9-1-3.81-2-5.73-3l-.16-.08q-6-3-12.2-5.83l-.85-.38q-2.54-1.14-5.12-2.23l-1.36-.57q-2.43-1-4.89-2l-1.28-.51q-6.15-2.41-12.43-4.57l-1.2-.4c-1.65-.55-3.31-1.1-5-1.63l-1.88-.59q-2.23-.69-4.47-1.35l-2-.57q-2.45-.71-4.91-1.36l-1.43-.38c-2.13-.56-4.26-1.1-6.41-1.61l-1.13-.26q-2.62-.61-5.26-1.19l-2.14-.44c-1.46-.31-2.92-.6-4.39-.88l-2.31-.44c-1.51-.28-3-.54-4.53-.79l-2-.35c-2.18-.35-4.37-.69-6.57-1C816.86,2088,679.77,2192.7,667.77,2343.68s105.86,287.91,261.3,305.65c2.21.25,4.4.47,6.6.67l2.07.17q2.28.2,4.56.36l2.33.15c1.48.09,3,.16,4.45.23l2.15.1c1.79.06,3.57.11,5.36.15l1.15,0q3.27,0,6.52,0l1.47,0c1.68,0,3.36-.05,5-.1l2-.07c1.54-.06,3.08-.12,4.61-.21l1.92-.1c1.72-.1,3.45-.23,5.16-.36l1.21-.09q6.51-.54,12.92-1.37l1.31-.18c1.72-.23,3.43-.47,5.13-.74l1.41-.21q2.72-.44,5.42-.92l.83-.14q6.51-1.2,12.91-2.68l.11,0c2.06-.48,4.11-1,6.15-1.51l.6-.16c2-.52,4-1.06,6-1.62l.2-.06c76.94-21.91,139.28-76.35,169.2-148.79l88.36,10.84,17.21-9.79L1298.32,2476l43.75,5.42-2.12,26.68,21.81,2.67L1379,2501l-15.08-16.86,25.11,3.11-2.12,26.62,35.06,4.3,17.21-9.79-16.2-2.8,44.91,5.54-1,12.56,19.91,2.44,1.93-24.38,53.24,6.59L1540,2532.6l40.81,5,17.2-9.78-15.1-16.6,43.45,5.38-2.1,26.33,50.37,6.18a23.59,23.59,0,0,0,16.57-4.11l76.68-54.41A23.41,23.41,0,0,0,1777.31,2468.12ZM767.24,2356.23c2.42-30.43,30.08-51.8,61.7-47.73s55.07,31.89,52.66,62.17-29.86,51.67-61.41,47.77S764.82,2386.67,767.24,2356.23Z" fill="url(#linear-gradient-108)"/><path d="M1064.44,2462.38l249,30.53,2.12-26.73,43.75,5.42-2.12,26.68L1379,2501l2.12-26.65,25.11,3.11-2.11,26.62,35.06,4.3,1-12.58,44.91,5.53-1,12.56,19.9,2.44,1.94-24.37,53.24,6.58-1.94,24.32,40.81,5,2.1-26.39,43.45,5.38-2.09,26.34,50.36,6.17a23.62,23.62,0,0,0,16.58-4.1l76.67-54.41c9.52-6.76,12.44-19.72,6.88-30.57l-23.69-46.31a25.87,25.87,0,0,0-19.54-13.91l-620-80.51Z" fill="url(#linear-gradient-109)"/><path d="M685,2333.89c-12,151,105.87,287.92,261.31,305.65,153.31,17.49,285.57-87.88,297.27-235.13s-101.32-283.6-254.35-304.78C834.06,2078.16,697,2182.92,685,2333.89Zm213.84,27c-2.41,30.29-29.87,51.68-61.41,47.77s-55.38-31.77-53-62.2,30.08-51.81,61.7-47.74S901.21,2330.6,898.81,2360.88Z" fill="url(#linear-gradient-110)"/><path d="M989.2,2099.63C834.06,2078.16,697,2182.92,685,2333.89s105.87,287.92,261.31,305.65c124.77,14.24,235.55-52.87,278.75-157.46l26.57,3.26c2-33.69,13-49.16,24.26-56.73,31.74-21.25,67.34,18.31,149.46,20.39,68.44,1.74,79-25,142-15.28,43.81,6.74,58,22.72,93.36,34.88,31.3,10.76,74.34,16.84,132,2.93a24.57,24.57,0,0,0-.68-21.29l-23.69-46.31a25.87,25.87,0,0,0-19.54-13.91l-511.1-66.37C1211.75,2210.34,1113.74,2116.87,989.2,2099.63ZM784.44,2346.45c2.42-30.44,30.08-51.81,61.7-47.74s55.07,31.89,52.67,62.17-29.87,51.68-61.41,47.77S782,2376.88,784.44,2346.45Z" opacity="0.3" fill="url(#linear-gradient-111)" style="mix-blend-mode:multiply"/><path d="M741,2341c-9.62,121,84.72,231.06,209.46,245.59,123.37,14.37,230-70.28,239.47-188.92s-81.79-228.27-205-245C860.44,2135.67,750.65,2219.92,741,2341Zm157.78,19.91c-2.41,30.29-29.87,51.68-61.41,47.77s-55.38-31.77-53-62.2,30.08-51.81,61.7-47.74S901.21,2330.6,898.81,2360.88Z" fill="url(#linear-gradient-112)"/><path d="M662.87,2378.07l14.72-11s9.23,6.39,20.52,5.52c6.15-.48,14.31,3.22,16.15,5.17s10.41,6.65-1.86,5.42-14.24,2.19-12.53,8.33,12,23.29,17.15,27-9.72,6.13-15.85,3.88-15.94-6.33-23.09-19.62C675.47,2397.86,662.87,2378.07,662.87,2378.07Z" fill="url(#linear-gradient-113)"/><path d="M1222.24,2491.12s28.86.11,46.63-5.42,27.69,6.07,25.38,13.15-31.35,14.26-42.58,13.47S1222.24,2491.12,1222.24,2491.12Z" fill="url(#linear-gradient-114)"/><path d="M2021.85,813.29s70.06-135.74,190.17-83.1,109,25,192.39,35.49,186.63,68.35,119.45,80-593.21,25-593.21,25S1938.44,820.41,2021.85,813.29Z" fill="#fff"/></g></g></svg>